<svg width="53" height="56" viewBox="0 0 53 56" fill="none" xmlns="http://www.w3.org/2000/svg">
<path d="M51.514 18.983L50.628 14.545L45.966 14.71C44.134 14.713 34.981 14.383 30.875 7.78304L26.437 0.842041L21.943 7.83204C17.949 14.383 8.73701 14.657 6.96401 14.657L2.24601 14.492L1.36001 18.93C0.552798 24.8351 0.721716 30.8327 1.86001 36.683C3.20495 43.5831 6.43029 49.9774 11.18 55.16V52.72H14.12C9.75391 48.0271 6.79352 42.2023 5.57601 35.909C4.44285 30.5798 4.31161 25.0863 5.18901 19.709L5.41101 18.433L6.96501 18.489C9.12801 18.489 20.112 18.102 25.218 9.88904L26.494 7.88904L27.714 9.83004C32.819 18.099 43.799 18.483 46.022 18.483L47.522 18.427L47.744 19.703C48.6225 25.0802 48.4913 30.574 47.357 35.903C46.1149 42.1878 43.1577 48.0062 38.813 52.714H41.918V55.042C46.6056 49.8541 49.7904 43.4865 51.13 36.624C52.3574 30.8192 52.4876 24.8358 51.514 18.983Z" fill="#4E4B66"/>
<path d="M39.6419 25.5322L39.3079 23.9172L37.5319 23.9732C36.4239 23.9732 30.6539 23.7512 28.1009 19.5352L26.4909 17.0352L24.8839 19.5972C22.3309 23.7572 16.5609 23.9782 15.4509 23.9782L13.6749 23.9172L13.3439 25.5272C12.8107 28.7124 12.886 31.9699 13.5659 35.1272C14.1916 38.4357 15.6295 41.5369 17.7505 44.1522C19.8714 46.7674 22.6089 48.8147 25.7169 50.1102L26.4939 50.5002L27.2709 50.1662C30.3819 48.8772 33.122 46.8322 35.243 44.2166C37.3639 41.6009 38.7985 38.4974 39.4169 35.1872C40.1001 32.0117 40.1755 28.7356 39.6389 25.5322M25.4929 40.2902L20.6119 35.4092L23.1119 32.9092L25.4929 35.2972L30.7639 30.0262L33.2639 32.5262L25.4929 40.2902Z" fill="#4E4B66"/>
</svg>
