<svg width="41" height="24" viewBox="0 0 41 24" fill="none" xmlns="http://www.w3.org/2000/svg">
<path d="M18.3876 9.39995C17.4938 9.39995 17.4938 10.7 18.3876 10.7H21.5563C22.4501 10.7 22.4501 9.39995 21.5563 9.39995H18.3876ZM2.3813 4.4437C4.1688 8.26245 7.98755 10.7 12.1313 10.7H13.2688C15.7875 10.7 17.7375 12.7312 17.7375 15.25C17.7375 16.7125 17.1688 17.6062 16.275 18.2562C15.3813 18.9062 14.2438 19.2312 13.2688 19.15C12.05 19.15 11.1563 18.5812 10.425 17.6875C9.8563 16.875 9.45005 15.9 9.3688 15.0062C10.1813 14.7625 11.1563 14.6 12.05 14.6H15.7063C16.6 14.6 16.6 13.3 15.7063 13.3H12.05C8.3938 13.1375 3.92505 15.8187 2.30005 19.475V4.4437H2.3813ZM1.7313 0.949951C1.4063 0.949951 1.0813 1.1937 1.0813 1.59995V22.4C1.0813 23.1312 2.0563 23.2937 2.30005 22.6437L3.43755 20.2062C4.41255 18.0125 6.1188 16.3875 8.2313 15.4125C8.3938 16.4687 8.80005 17.525 9.45005 18.4187C10.3438 19.5562 11.6438 20.3687 13.2688 20.45C14.5688 20.5312 15.95 20.125 17.0875 19.3125C18.225 18.5 19.0375 17.1187 19.0375 15.25C19.0375 12 16.4375 9.39995 13.2688 9.39995H12.1313C8.3938 9.39995 4.9813 7.2062 3.3563 3.71245L2.2188 1.27495C2.2188 1.11245 1.97505 0.949951 1.7313 0.949951Z" fill="#4E4B66" stroke="#4E4B66" stroke-width="0.5696" stroke-miterlimit="10"/>
<path d="M18.3876 9.39995C17.4938 9.39995 17.4938 10.7 18.3876 10.7H21.5563C22.4501 10.7 22.4501 9.39995 21.5563 9.39995H18.3876ZM2.3813 4.4437C4.1688 8.26245 7.98755 10.7 12.1313 10.7H13.2688C15.7875 10.7 17.7375 12.7312 17.7375 15.25C17.7375 16.7125 17.1688 17.6062 16.275 18.2562C15.3813 18.9062 14.2438 19.2312 13.2688 19.15C12.05 19.15 11.1563 18.5812 10.425 17.6875C9.8563 16.875 9.45005 15.9 9.3688 15.0062C10.1813 14.7625 11.1563 14.6 12.05 14.6H15.7063C16.6 14.6 16.6 13.3 15.7063 13.3H12.05C8.3938 13.1375 3.92505 15.8187 2.30005 19.475V4.4437H2.3813ZM1.7313 0.949951C1.4063 0.949951 1.0813 1.1937 1.0813 1.59995V22.4C1.0813 23.1312 2.0563 23.2937 2.30005 22.6437L3.43755 20.2062C4.41255 18.0125 6.1188 16.3875 8.2313 15.4125C8.3938 16.4687 8.80005 17.525 9.45005 18.4187C10.3438 19.5562 11.6438 20.3687 13.2688 20.45C14.5688 20.5312 15.95 20.125 17.0875 19.3125C18.225 18.5 19.0375 17.1187 19.0375 15.25C19.0375 12 16.4375 9.39995 13.2688 9.39995H12.1313C8.3938 9.39995 4.9813 7.2062 3.3563 3.71245L2.2188 1.27495C2.2188 1.11245 1.97505 0.949951 1.7313 0.949951Z" fill="#4E4B66" stroke="#4E4B66" stroke-width="0.5696" stroke-miterlimit="10"/>
<path d="M32.9313 4.28125C31.9563 4.28125 31.0625 4.525 30.25 4.93125L21.8 9.48125C21.475 9.64375 21.3938 10.05 21.5563 10.375C21.7188 10.7 22.125 10.7812 22.45 10.6187L30.9 6.06875C31.55 5.74375 32.2813 5.5 33.0125 5.5C34.8813 5.5 36.2625 6.23125 37.2375 7.36875C38.2125 8.50625 38.7 9.96875 38.7813 11.35V12.65C38.7813 15.9 36.1813 18.4188 33.0125 18.4188C32.2813 18.4188 31.55 18.0938 30.8188 17.85L22.3688 13.3C22.0438 13.1375 21.6375 13.2188 21.475 13.5438C21.3125 13.8688 21.3938 14.275 21.7188 14.4375L30.1688 18.9875H30.25C30.9 19.2312 31.7938 19.6375 32.85 19.6375C36.75 19.6375 39.9188 16.4688 39.9188 12.5688V11.2687C39.9188 9.5625 39.2688 7.775 38.05 6.475C36.9125 5.175 35.125 4.28125 32.9313 4.28125Z" fill="#4E4B66" stroke="#4E4B66" stroke-width="0.5696" stroke-miterlimit="10"/>
<path d="M32.9313 4.28125C31.9563 4.28125 31.0625 4.525 30.25 4.93125L21.8 9.48125C21.475 9.64375 21.3938 10.05 21.5563 10.375C21.7188 10.7 22.125 10.7812 22.45 10.6187L30.9 6.06875C31.55 5.74375 32.2813 5.5 33.0125 5.5C34.8813 5.5 36.2625 6.23125 37.2375 7.36875C38.2125 8.50625 38.7 9.96875 38.7813 11.35V12.65C38.7813 15.9 36.1813 18.4188 33.0125 18.4188C32.2813 18.4188 31.55 18.0938 30.8188 17.85L22.3688 13.3C22.0438 13.1375 21.6375 13.2188 21.475 13.5438C21.3125 13.8688 21.3938 14.275 21.7188 14.4375L30.1688 18.9875H30.25C30.9 19.2312 31.7938 19.6375 32.85 19.6375C36.75 19.6375 39.9188 16.4688 39.9188 12.5688V11.2687C39.9188 9.5625 39.2688 7.775 38.05 6.475C36.9125 5.175 35.125 4.28125 32.9313 4.28125Z" fill="#4E4B66" stroke="#4E4B66" stroke-width="0.5696" stroke-miterlimit="10"/>
<path d="M4.57515 6.2312H3.6814V17.6875H4.57515V6.2312Z" fill="#4E4B66" stroke="#4E4B66" stroke-width="0.5696" stroke-miterlimit="10"/>
<path d="M4.57515 6.2312H3.6814V17.6875H4.57515V6.2312Z" fill="#4E4B66" stroke="#4E4B66" stroke-width="0.5696" stroke-miterlimit="10"/>
<path d="M22.2876 10.2124H21.3938V13.7874H22.2876V10.2124Z" fill="#4E4B66" stroke="#4E4B66" stroke-width="0.5696" stroke-miterlimit="10"/>
<path d="M22.2876 10.2124H21.3938V13.7874H22.2876V10.2124Z" fill="#4E4B66" stroke="#4E4B66" stroke-width="0.5696" stroke-miterlimit="10"/>
<path d="M21.6375 13.5437H18.7937V14.4375H21.6375V13.5437Z" fill="#4E4B66" stroke="#4E4B66" stroke-width="0.5696" stroke-miterlimit="10"/>
<path d="M21.6375 13.5437H18.7937V14.4375H21.6375V13.5437Z" fill="#4E4B66" stroke="#4E4B66" stroke-width="0.5696" stroke-miterlimit="10"/>
<path d="M12.5376 13.7063C11.9689 14.1938 11.7251 14.9251 11.9689 15.575C12.2126 16.225 12.8626 16.7125 13.5939 16.7125C14.3251 16.7125 14.9751 16.225 15.2189 15.575C15.4626 14.9251 15.2189 14.1125 14.6501 13.7063L14.0001 14.6001C14.1626 14.7625 14.2439 15.0063 14.1626 15.25C14.0814 15.4938 13.8376 15.6563 13.5939 15.6563C13.3501 15.6563 13.1064 15.4938 13.0251 15.25C12.9439 15.0063 13.0251 14.7625 13.1876 14.6001L12.5376 13.7063Z" fill="#4E4B66" stroke="#4E4B66" stroke-width="0.5696" stroke-miterlimit="10"/>
<path d="M12.5376 13.7063C11.9689 14.1938 11.7251 14.9251 11.9689 15.575C12.2126 16.225 12.8626 16.7125 13.5939 16.7125C14.3251 16.7125 14.9751 16.225 15.2189 15.575C15.4626 14.9251 15.2189 14.1125 14.6501 13.7063L14.0001 14.6001C14.1626 14.7625 14.2439 15.0063 14.1626 15.25C14.0814 15.4938 13.8376 15.6563 13.5939 15.6563C13.3501 15.6563 13.1064 15.4938 13.0251 15.25C12.9439 15.0063 13.0251 14.7625 13.1876 14.6001L12.5376 13.7063Z" fill="#4E4B66" stroke="#4E4B66" stroke-width="0.5696" stroke-miterlimit="10"/>
</svg>
