<svg width="49" height="64" viewBox="0 0 49 64" fill="none" xmlns="http://www.w3.org/2000/svg">
<path d="M47.8401 43.463L33.5251 16.572C33.0893 15.755 32.4581 15.0586 31.6877 14.5449C30.9174 14.0312 30.0318 13.7162 29.1101 13.628L18.6101 12.628C18.2607 10.9895 17.6738 9.41084 16.8681 7.94201C15.5876 5.40463 13.676 3.23926 11.3171 1.65401C8.77306 0.117012 6.23206 -0.145988 4.22606 0.920012C2.15106 1.98801 1.01406 4.26401 0.879058 7.20801C0.89224 10.0562 1.60478 12.8576 2.95406 15.366C3.72463 16.8669 4.7175 18.2427 5.89906 19.447L0.814057 28.679C0.37046 29.489 0.137939 30.3976 0.137939 31.321C0.137939 32.2445 0.37046 33.1531 0.814057 33.963L15.0611 60.787C15.5422 61.6803 16.2567 62.4263 17.1285 62.9454C18.0002 63.4646 18.9965 63.7375 20.0111 63.735C20.9234 63.7352 21.821 63.5054 22.6211 63.067L45.5661 50.888C46.8491 50.2018 47.8084 49.0357 48.2343 47.6444C48.6602 46.2531 48.5181 44.7498 47.8391 43.463M5.02906 7.34001C5.09506 6.00201 5.49506 4.93101 6.16606 4.59701C6.6577 4.45326 7.17718 4.4328 7.6786 4.53744C8.18002 4.64209 8.64795 4.86861 9.04106 5.19701C10.7781 6.385 12.1826 7.99739 13.1211 9.88101C13.5228 10.631 13.8575 11.415 14.1211 12.224L13.6521 12.158C12.5681 12.063 11.4799 12.2842 10.519 12.7948C9.55815 13.3054 8.76587 14.0835 8.23806 15.035L8.03806 15.435C7.52423 14.752 7.05461 14.0369 6.63206 13.294C5.62444 11.4682 5.07537 9.42496 5.03206 7.34001M43.5571 47.276L20.6151 59.449C20.3025 59.6072 19.9412 59.6399 19.6053 59.5405C19.2693 59.441 18.9841 59.2169 18.8081 58.914L4.49406 32.023C4.39473 31.8263 4.34299 31.6089 4.34299 31.3885C4.34299 31.1681 4.39473 30.9508 4.49406 30.754L9.24206 22.054C10.3915 22.6863 11.6774 23.0295 12.9891 23.054C13.3237 23.0649 13.6587 23.0428 13.9891 22.988C14.2574 22.9414 14.5139 22.842 14.7436 22.6956C14.9733 22.5492 15.1716 22.3587 15.3272 22.1351C15.4828 21.9116 15.5925 21.6594 15.65 21.3931C15.7075 21.1269 15.7116 20.8519 15.6621 20.584C15.6217 20.3126 15.5263 20.0523 15.3816 19.8192C15.237 19.5861 15.0461 19.385 14.8208 19.2284C14.5955 19.0718 14.3406 18.9629 14.0717 18.9085C13.8027 18.8541 13.5255 18.8553 13.2571 18.912C12.5557 18.963 11.8553 18.8006 11.2481 18.446L11.9191 17.174C12.0301 16.9512 12.2014 16.7639 12.4135 16.6337C12.6257 16.5034 12.8701 16.4352 13.1191 16.437H13.2541L28.7051 17.837C28.9297 17.8646 29.1444 17.946 29.3309 18.0743C29.5173 18.2026 29.67 18.374 29.7761 18.574L44.0931 45.402C44.262 45.7231 44.3006 46.0969 44.201 46.4457C44.1013 46.7946 43.8711 47.0916 43.5581 47.275" fill="#4E4B66"/>
<path d="M26.6189 47.097L23.4469 40.872L27.9129 38.599C31.6959 36.671 32.4719 32.999 30.9199 29.953C29.3529 26.88 25.9709 25.364 22.1569 27.304L13.9619 31.478L22.8899 48.998L26.6189 47.097ZM25.7409 35.568L21.7709 37.589L19.3659 32.861L23.3329 30.84C23.6449 30.6412 23.9951 30.5104 24.361 30.456C24.7268 30.4016 25.1 30.4248 25.4562 30.5241C25.8125 30.6235 26.1439 30.7967 26.4288 31.0325C26.7137 31.2683 26.9458 31.5615 27.1099 31.893C27.2792 32.2211 27.3781 32.581 27.4002 32.9495C27.4223 33.3181 27.3672 33.6873 27.2383 34.0333C27.1094 34.3793 26.9096 34.6945 26.6517 34.9588C26.3939 35.2231 26.0836 35.4306 25.7409 35.568Z" fill="#4E4B66"/>
<path d="M17.386 46.448L18.568 48.767L31.225 42.317L30.043 39.998L17.386 46.448Z" fill="#4E4B66"/>
<path d="M22.5269 48.344L24.0729 51.371L27.8169 49.471L26.2709 46.437L22.5269 48.344Z" fill="#2B2E34"/>
</svg>
