<svg width="69" height="42" viewBox="0 0 69 42" fill="none" xmlns="http://www.w3.org/2000/svg">
<path d="M34.696 9.57994C34.5197 9.43111 34.3045 9.33577 34.0758 9.30514C33.8471 9.27452 33.6143 9.3099 33.405 9.40709C33.1957 9.50428 33.0186 9.65924 32.8944 9.85374C32.7702 10.0482 32.7042 10.2742 32.7041 10.5049V12.5229H23.1981C22.8769 12.5229 22.5689 12.6505 22.3418 12.8776C22.1147 13.1047 21.9871 13.4128 21.9871 13.7339V20.1929C21.9871 20.5141 22.1147 20.8221 22.3418 21.0492C22.5689 21.2763 22.8769 21.4039 23.1981 21.4039H32.7041V23.4219C32.704 23.6528 32.7698 23.8789 32.894 24.0735C33.0181 24.2681 33.1952 24.4233 33.4046 24.5206C33.6139 24.6179 33.8467 24.6533 34.0755 24.6228C34.3043 24.5922 34.5196 24.4968 34.696 24.3479L42.351 17.8889C42.4857 17.7753 42.594 17.6337 42.6683 17.474C42.7425 17.3142 42.781 17.1401 42.781 16.9639C42.781 16.7877 42.7425 16.6137 42.6683 16.4539C42.594 16.2941 42.4857 16.1525 42.351 16.0389L34.696 9.57994ZM35.1261 20.8159V20.1929C35.1261 20.0339 35.0947 19.8764 35.0339 19.7295C34.973 19.5826 34.8838 19.4491 34.7714 19.3366C34.6589 19.2242 34.5254 19.135 34.3785 19.0741C34.2316 19.0133 34.0741 18.9819 33.9151 18.9819H24.4091V14.9449H33.9151C34.0741 14.9449 34.2316 14.9136 34.3785 14.8528C34.5254 14.7919 34.6589 14.7027 34.7714 14.5902C34.8838 14.4778 34.973 14.3443 35.0339 14.1974C35.0947 14.0504 35.1261 13.893 35.1261 13.7339V13.1109L39.692 16.9629L35.1261 20.8159Z" fill="#4E4B66" stroke="#4E4B66" stroke-width="1.25"/>
<path d="M58.9969 11.1819C58.5717 11.1245 58.143 11.0958 57.7139 11.0959H50.9829C49.9711 11.0961 48.9809 11.3893 48.1319 11.9399V6.48291C48.1306 5.07174 47.5695 3.71874 46.5718 2.72079C45.574 1.72285 44.2211 1.1615 42.8099 1.15991H15.3359C13.8393 1.1615 12.4044 1.75675 11.3461 2.81505C10.2878 3.87335 9.69252 5.30826 9.69093 6.80492V8.61292H7.17593C7.01403 8.60826 6.85286 8.63613 6.70193 8.69487C6.551 8.75361 6.41337 8.84203 6.29722 8.9549C6.18106 9.06776 6.08873 9.20278 6.02567 9.35196C5.96262 9.50114 5.93013 9.66145 5.93013 9.82341C5.93013 9.98537 5.96262 10.1457 6.02567 10.2949C6.08873 10.444 6.18106 10.5791 6.29722 10.6919C6.41337 10.8048 6.551 10.8932 6.70193 10.952C6.85286 11.0107 7.01403 11.0386 7.17593 11.0339H9.69193V13.5789H2.20893C2.04704 13.5742 1.88586 13.6021 1.73492 13.6609C1.58399 13.7196 1.44638 13.808 1.33022 13.9209C1.21407 14.0337 1.12173 14.1688 1.05868 14.3179C0.995625 14.4671 0.963135 14.6275 0.963135 14.7894C0.963135 14.9514 0.995625 15.1117 1.05868 15.2609C1.12173 15.41 1.21407 15.5451 1.33022 15.6579C1.44638 15.7708 1.58399 15.8592 1.73492 15.918C1.88586 15.9767 2.04704 16.0046 2.20893 15.9999H9.69193V18.5459H5.93493C5.77304 18.5413 5.61185 18.5691 5.46092 18.6279C5.30999 18.6866 5.17238 18.775 5.05622 18.8879C4.94006 19.0008 4.84773 19.1358 4.78468 19.285C4.72162 19.4341 4.68913 19.5944 4.68913 19.7564C4.68913 19.9184 4.72162 20.0787 4.78468 20.2279C4.84773 20.377 4.94006 20.5121 5.05622 20.6249C5.17238 20.7378 5.30999 20.8262 5.46092 20.8849C5.61185 20.9437 5.77304 20.9716 5.93493 20.9669H9.69193V23.5119H2.20893C2.04704 23.5073 1.88586 23.5351 1.73492 23.5939C1.58399 23.6526 1.44638 23.741 1.33022 23.8539C1.21407 23.9667 1.12173 24.1018 1.05868 24.251C0.995625 24.4001 0.963135 24.5605 0.963135 24.7224C0.963135 24.8844 0.995625 25.0447 1.05868 25.1939C1.12173 25.343 1.21407 25.4781 1.33022 25.5909C1.44638 25.7038 1.58399 25.7922 1.73492 25.851C1.88586 25.9097 2.04704 25.9376 2.20893 25.9329H9.69193V28.1999C9.69379 29.9041 10.3716 31.5381 11.5767 32.7431C12.7818 33.9482 14.4157 34.6261 16.1199 34.6279H17.1459C17.1459 34.6389 17.1459 34.6479 17.1459 34.6579C17.1459 36.2967 17.7969 37.8683 18.9557 39.0271C20.1145 40.1859 21.6862 40.8369 23.3249 40.8369C24.9637 40.8369 26.5354 40.1859 27.6941 39.0271C28.8529 37.8683 29.5039 36.2967 29.5039 34.6579C29.5039 34.6469 29.5039 34.6379 29.5039 34.6279H50.6839C50.6839 34.6389 50.6839 34.6479 50.6839 34.6579C50.6839 36.2967 51.3349 37.8683 52.4937 39.0271C53.6525 40.1859 55.2242 40.8369 56.8629 40.8369C58.5017 40.8369 60.0734 40.1859 61.2321 39.0271C62.3909 37.8683 63.0419 36.2967 63.0419 34.6579C63.0419 34.6469 63.0419 34.6379 63.0419 34.6279H63.5339C64.7212 34.6266 65.8594 34.1544 66.6989 33.3149C67.5384 32.4754 68.0106 31.3371 68.0119 30.1499V21.3889C68.0122 18.8831 67.097 16.4636 65.4385 14.5852C63.78 12.7068 61.4924 11.499 59.0059 11.1889L58.9969 11.1819ZM58.6859 13.5819C60.5898 13.816 62.3423 14.7383 63.6133 16.175C64.8842 17.6118 65.5859 19.4637 65.5859 21.3819V22.2709H57.3919C56.9128 22.2706 56.4534 22.0804 56.1145 21.7418C55.7755 21.4032 55.5847 20.944 55.5839 20.4649V13.5139H57.7139C58.0394 13.5135 58.3646 13.5359 58.6869 13.5809L58.6859 13.5819ZM23.3229 38.4179C22.5799 38.4179 21.8535 38.1976 21.2356 37.7847C20.6178 37.3719 20.1363 36.7851 19.8519 36.0986C19.5676 35.4121 19.4932 34.6567 19.6381 33.9279C19.7831 33.1992 20.1409 32.5297 20.6663 32.0043C21.1918 31.4789 21.8612 31.1211 22.59 30.9761C23.3188 30.8311 24.0742 30.9055 24.7607 31.1899C25.4472 31.4743 26.0339 31.9558 26.4468 32.5736C26.8596 33.1915 27.0799 33.9178 27.0799 34.6609C27.0797 35.6575 26.6839 36.6133 25.9794 37.3183C25.275 38.0233 24.3195 38.4199 23.3229 38.4209V38.4179ZM23.3229 28.4819C22.1179 28.4832 20.9394 28.8365 19.9325 29.4985C18.9255 30.1604 18.1339 31.1021 17.6549 32.2079H16.1199C15.0579 32.2066 14.0397 31.7841 13.2887 31.0331C12.5377 30.2821 12.1153 29.264 12.1139 28.2019V25.9349H15.8709C16.186 25.9258 16.485 25.7944 16.7047 25.5683C16.9243 25.3423 17.0471 25.0396 17.0471 24.7244C17.0471 24.4093 16.9243 24.1065 16.7047 23.8805C16.485 23.6545 16.186 23.523 15.8709 23.5139H12.1139V20.9689H18.3549C18.6699 20.9598 18.969 20.8284 19.1887 20.6023C19.4083 20.3763 19.5311 20.0736 19.5311 19.7584C19.5311 19.4433 19.4083 19.1405 19.1887 18.9145C18.969 18.6885 18.6699 18.557 18.3549 18.5479H12.1139V16.0019H15.8709C16.186 15.9929 16.485 15.8614 16.7047 15.6353C16.9243 15.4093 17.0471 15.1066 17.0471 14.7914C17.0471 14.4763 16.9243 14.1735 16.7047 13.9475C16.485 13.7215 16.186 13.59 15.8709 13.5809H12.1139V11.0359H18.3549C18.6699 11.0268 18.969 10.8954 19.1887 10.6693C19.4083 10.4433 19.5311 10.1406 19.5311 9.82541C19.5311 9.51026 19.4083 9.20752 19.1887 8.98149C18.969 8.75547 18.6699 8.62397 18.3549 8.61491H12.1139V6.80692C12.115 5.95245 12.4549 5.13327 13.0591 4.52907C13.6633 3.92487 14.4825 3.58497 15.3369 3.58391H42.8099C43.1908 3.58391 43.5679 3.65892 43.9197 3.80466C44.2716 3.9504 44.5913 4.16401 44.8605 4.4333C45.1298 4.70259 45.3434 5.02229 45.4892 5.37413C45.6349 5.72597 45.7099 6.10308 45.7099 6.48392V32.2129H28.9919C28.513 31.107 27.7214 30.1652 26.7145 29.503C25.7075 28.8409 24.5291 28.4874 23.3239 28.4859L23.3229 28.4819ZM56.8569 38.4179C56.1139 38.4179 55.3875 38.1976 54.7696 37.7847C54.1518 37.3719 53.6703 36.7851 53.3859 36.0986C53.1016 35.4121 53.0272 34.6567 53.1721 33.9279C53.3171 33.1992 53.6749 32.5297 54.2003 32.0043C54.7257 31.4789 55.3952 31.1211 56.124 30.9761C56.8528 30.8311 57.6082 30.9055 58.2947 31.1899C58.9812 31.4743 59.5679 31.9558 59.9808 32.5736C60.3936 33.1915 60.6139 33.9178 60.6139 34.6609C60.6137 35.6577 60.2177 36.6136 59.5131 37.3186C58.8084 38.0237 57.8527 38.4201 56.8559 38.4209L56.8569 38.4179ZM63.5269 32.2079H62.5269C62.049 31.1014 61.2577 30.1589 60.2505 29.4967C59.2433 28.8346 58.0643 28.4818 56.8589 28.4818C55.6536 28.4818 54.4746 28.8346 53.4674 29.4967C52.4602 30.1589 51.6688 31.1014 51.1909 32.2079H48.1339V16.3699C48.1347 15.614 48.4353 14.8893 48.9698 14.3548C49.5043 13.8203 50.229 13.5197 50.9849 13.5189H53.1649V20.4679C53.166 21.5894 53.612 22.6646 54.4051 23.4574C55.1982 24.2503 56.2735 24.6961 57.3949 24.6969H65.5839V30.1559C65.5831 30.7007 65.3664 31.2229 64.9812 31.6081C64.5959 31.9934 64.0737 32.2101 63.5289 32.2109L63.5269 32.2079Z" fill="#4E4B66" stroke="#4E4B66"/>
</svg>
