<svg width="28" height="28" viewBox="0 0 28 28" fill="none" xmlns="http://www.w3.org/2000/svg">
<path d="M1.75 1.75H4.48038C5.00142 1.75001 5.50679 1.92106 5.91256 2.23477C6.31833 2.54847 6.60011 2.98595 6.71108 3.47456L7.44945 6.70422M7.44945 6.70422L8.70868 13.3894C8.99003 14.907 9.818 16.2815 11.0479 17.2727C12.2779 18.264 13.8316 18.809 15.4376 18.8125H18.5182C20.0723 18.8093 21.579 18.299 22.7909 17.3652C24.0028 16.4314 24.8477 15.1298 25.1869 13.6742L26.3524 8.72316C26.41 8.48217 26.4103 8.23184 26.3534 7.99071C26.2965 7.74959 26.1838 7.52383 26.0237 7.33016C25.8636 7.13649 25.6601 6.97987 25.4284 6.87189C25.1966 6.76391 24.9426 6.70733 24.685 6.70636L7.44945 6.70422Z" stroke="#EDEDF4" stroke-width="2" stroke-linecap="round"/>
<path d="M10.2814 26.25C10.8049 26.25 11.2293 25.8256 11.2293 25.302C11.2293 24.7785 10.8049 24.3541 10.2814 24.3541C9.75789 24.3541 9.3335 24.7785 9.3335 25.302C9.3335 25.8256 9.75789 26.25 10.2814 26.25Z" stroke="#EDEDF4" stroke-width="2"/>
<path d="M23.5519 26.25C24.0754 26.25 24.4998 25.8256 24.4998 25.302C24.4998 24.7785 24.0754 24.3541 23.5519 24.3541C23.0284 24.3541 22.604 24.7785 22.604 25.302C22.604 25.8256 23.0284 26.25 23.5519 26.25Z" stroke="#EDEDF4" stroke-width="2"/>
</svg>
