<svg width="37" height="36" viewBox="0 0 37 36" fill="none" xmlns="http://www.w3.org/2000/svg">
<path d="M18.0125 29.7001C14.8438 32.7876 9.8063 32.7876 6.63755 29.7001C3.4688 26.6126 3.4688 21.6563 6.63755 18.5688" fill="#4E4B66"/>
<path d="M21.0187 30.5125C21.5875 29.9437 21.5875 28.9687 21.0187 28.4L7.8562 15.4812C7.28745 14.9125 6.31245 14.9125 5.7437 15.4812C5.17495 16.05 5.17495 17.025 5.7437 17.5937L18.9062 30.5125C19.475 31.1625 20.45 31.1625 21.0187 30.5125Z" fill="#4E4B66"/>
<path d="M18.9875 6.3C22.1563 3.2125 27.1938 3.2125 30.3625 6.3C33.5313 9.3875 33.5313 14.3437 30.3625 17.4312" fill="#4E4B66"/>
<path d="M15.9812 5.4875C15.4125 6.05625 15.4125 7.03125 15.9812 7.6L29.1437 20.5188C29.7125 21.0875 30.6875 21.0875 31.2562 20.5188C31.825 19.95 31.825 18.975 31.2562 18.4063L18.0937 5.4875C17.525 4.8375 16.55 4.8375 15.9812 5.4875Z" fill="#4E4B66"/>
<path d="M14.925 13.6126C15.4938 13.0438 16.4688 13.0438 17.1188 13.6126C17.6875 14.1813 17.6875 15.1563 17.1188 15.7251L13.4625 19.3001L11.2688 17.1876L14.925 13.6126Z" fill="#4E4B66"/>
<path d="M20.8562 19.3812C21.4249 18.8124 22.3999 18.8124 23.0499 19.3812C23.6187 19.9499 23.6187 20.9249 23.0499 21.4937L19.3124 25.0687L17.1187 22.9562L20.8562 19.3812Z" fill="#4E4B66"/>
<path d="M33.7749 0.85625C34.3437 0.2875 35.3187 0.2875 35.9687 0.85625C36.5374 1.425 36.5374 2.4 35.9687 2.96875L30.6062 8.25L28.4937 6.1375L33.7749 0.85625Z" fill="#4E4B66"/>
<path d="M3.22502 35.1438C2.65627 35.7125 1.68127 35.7125 1.03127 35.1438C0.381268 34.575 0.462518 33.6 1.03127 33.0313L6.39377 27.75L8.50627 29.8625L3.22502 35.1438Z" fill="#4E4B66"/>
</svg>
