<svg width="41" height="28" viewBox="0 0 41 28" fill="none" xmlns="http://www.w3.org/2000/svg">
<path d="M26.35 20.9062C24.6438 19.6875 22.6938 19.0375 20.5 19.0375C19.6875 19.0375 18.7938 19.1187 17.9813 19.3624L11.725 8.79995C11.4813 8.31245 10.8313 8.14995 10.3438 8.3937C9.85625 8.63745 9.69375 9.28745 9.9375 9.77495L16.0312 20.0125C15.4625 20.2562 15.0563 20.5812 14.5688 20.9062L3.7625 9.93745C8.39375 5.7937 14.325 3.5187 20.5 3.5187C26.7563 3.5187 32.6063 5.7937 37.2375 9.93745L26.35 20.9062ZM40.4875 8.79995C35.2062 3.5187 28.0562 0.512451 20.5 0.512451C12.9437 0.512451 5.875 3.43745 0.5125 8.79995C-0.05625 9.3687 -0.05625 10.3437 0.5125 10.9125L13.5125 23.9937C13.7562 24.2375 14.1625 24.4 14.5688 24.4C14.975 24.4 15.3813 24.2375 15.625 23.9937C16.1938 23.425 16.925 22.9375 17.6562 22.6124L18.7125 24.4C18.55 24.725 18.4688 25.05 18.4688 25.375C18.4688 26.5125 19.3625 27.4062 20.5 27.4062C21.6375 27.4062 22.5312 26.5125 22.5312 25.375C22.5312 24.2375 21.6375 23.3437 20.5 23.3437H20.4188L19.6063 22.0437C19.85 21.9625 20.175 21.9625 20.4188 21.9625C22.2875 21.9625 23.9938 22.6937 25.2938 23.9937C25.8625 24.5625 26.8375 24.5625 27.4062 23.9937L40.4062 10.9937C41.0563 10.425 41.0562 9.44995 40.4875 8.79995Z" fill="#4E4B66"/>
</svg>
