<svg width="35" height="44" viewBox="0 0 35 44" fill="none" xmlns="http://www.w3.org/2000/svg">
<path d="M32.4501 26.875H31.0688V14.3625H32.4501V26.875ZM25.625 25.4937V15.7437H29.6875V25.4937H25.625ZM24.3251 38.0063C24.3251 38.4125 24 38.7375 23.675 38.7375H19.6125C19.2063 38.7375 18.9625 38.4125 18.9625 38.0063V36.625C18.9625 36.3 18.7188 35.975 18.3938 35.975L13.1125 35.0812C11.8125 34.8375 10.8375 33.7 10.8375 32.3188V28.3375H24.4063V38.0063H24.3251ZM22.2938 41.5H20.9125V40.1187H22.2938V41.5ZM5.31255 14.3625H12.1375V22.0812C10.5938 22.4062 9.4563 23.8687 9.4563 25.4937V26.875H5.3938V14.3625H5.31255ZM2.55005 13.7125H3.9313V27.6063H2.55005V13.7125ZM21.5625 6.725V8.10625C20.8313 8.10625 20.1813 8.75625 20.1813 9.4875V11.6C20.1813 12.3313 20.75 12.9812 21.5625 12.9812V22H18.15V19.8875C18.15 18.75 17.2563 17.775 16.1188 17.775H13.4375V6.725H21.5625ZM12.0563 2.58125H22.9438V5.34375H20.9125V3.9625H19.5313V5.34375H18.15V3.9625H16.7688V5.34375H15.3875V3.9625H14.0063V5.34375H11.975L12.0563 2.58125ZM25.625 11.6H21.5625V9.4875H25.625V11.6ZM24.3251 15.0938V22.7313C23.9188 22.4063 23.4313 22.1625 22.9438 22.0812V12.9812H24.3251V15.0938ZM12.7063 23.4625H22.2125C23.35 23.4625 24.2438 24.3563 24.2438 25.575V26.875H10.675V25.4937C10.675 24.3562 11.65 23.4625 12.7063 23.4625ZM16.85 22.0812H13.4375V19.3188H16.1188C16.525 19.3188 16.7688 19.6437 16.7688 20.05V22.0812H16.85ZM33.1 12.9812H30.4188C30.0126 12.9812 29.7688 13.3062 29.7688 13.7125V14.4438H25.7063V13.0625C26.4375 13.0625 27.0875 12.4125 27.0875 11.6812V9.56875C27.0875 8.8375 26.5188 8.1875 25.7063 8.1875H23.025V6.80625C23.7563 6.80625 24.4063 6.15625 24.4063 5.425V2.6625C24.4063 1.93125 23.8375 1.28125 23.025 1.28125H12.0563C11.325 1.28125 10.675 1.93125 10.675 2.6625V5.425C10.675 6.15625 11.2438 6.80625 12.0563 6.80625V13.0625H5.31255C5.31255 12.6562 4.98755 12.3313 4.66255 12.3313H1.9813C1.57505 12.3313 1.3313 12.6562 1.3313 13.0625V28.3375C1.3313 28.7437 1.6563 29.0688 1.9813 29.0688H4.66255C5.0688 29.0688 5.31255 28.7437 5.31255 28.3375H9.37505V32.3188C9.37505 34.35 10.8375 36.1375 12.7875 36.4625L17.5 37.275V38.0875C17.5 39.225 18.3938 40.2 19.5313 40.2V41.5C19.5313 42.2313 20.1 42.8812 20.9125 42.8812H22.2938C23.025 42.8812 23.675 42.2313 23.675 41.5V40.1187C24.8125 40.1187 25.7063 39.225 25.7063 38.0063V26.875H29.7688V27.6063C29.7688 28.0125 30.0938 28.3375 30.4188 28.3375H33.1C33.5063 28.3375 33.75 28.0125 33.75 27.6063V13.7125C33.8313 13.3062 33.5063 12.9812 33.1 12.9812Z" fill="#4E4B66" stroke="#4E4B66" stroke-width="0.7055" stroke-miterlimit="10"/>
</svg>
