<svg width="31" height="38" viewBox="0 0 31 38" fill="none" xmlns="http://www.w3.org/2000/svg">
<path d="M5.01885 13.3938C4.53135 13.3938 4.04385 12.9875 4.04385 12.5C4.04385 12.0125 4.4501 11.6063 5.01885 11.6063H7.8626C8.3501 11.6063 8.8376 12.0125 8.8376 12.5C8.8376 12.9875 8.43135 13.3938 7.8626 13.3938H5.01885ZM5.99385 9.6563C5.4251 9.6563 5.01885 9.25005 5.01885 8.76255C5.01885 8.27505 5.4251 7.8688 5.99385 7.8688H7.8626C8.3501 7.8688 8.8376 8.27505 8.8376 8.76255C8.8376 9.25005 8.43135 9.6563 7.8626 9.6563H5.99385ZM5.01885 5.9188C4.53135 5.9188 4.04385 5.51255 4.04385 5.02505C4.04385 4.53755 4.4501 4.05005 5.01885 4.05005H7.8626C8.3501 4.05005 8.8376 4.4563 8.8376 5.02505C8.8376 5.51255 8.43135 5.9188 7.8626 5.9188H5.01885ZM15.5001 32.0813C16.5563 32.0813 17.3688 31.2688 17.3688 30.2125C17.3688 29.1563 16.4751 28.3438 15.5001 28.3438C14.4438 28.3438 13.6313 29.1563 13.6313 30.2125C13.6313 31.2688 14.4438 32.0813 15.5001 32.0813ZM14.5251 26.5563V20.8688C14.5251 20.3813 14.9313 19.975 15.5001 19.975C15.9876 19.975 16.4751 20.3813 16.4751 20.8688V26.5563C18.1001 26.9625 19.3188 28.425 19.3188 30.2125C19.3188 32.2438 17.6126 33.9501 15.5001 33.9501C13.3876 33.9501 11.6813 32.2438 11.6813 30.2125C11.6813 28.5063 12.9001 27.0438 14.5251 26.5563ZM12.6563 15.2625C12.6563 15.75 12.2501 16.1563 11.6813 16.1563C11.1126 16.1563 10.7063 15.75 10.7063 15.2625V5.02505C10.7063 2.42505 12.8188 0.393799 15.5001 0.393799C18.1001 0.393799 20.2938 2.5063 20.2938 5.02505V7.78755C20.2938 8.27505 19.8876 8.6813 19.3188 8.6813C18.7501 8.6813 18.3438 8.27505 18.3438 7.78755V5.02505C18.3438 3.4813 17.0438 2.1813 15.5001 2.1813C13.9563 2.1813 12.6563 3.40005 12.6563 5.02505V15.2625ZM23.1376 30.2125C23.1376 34.3563 19.7251 37.6875 15.5001 37.6875C11.2751 37.6875 7.8626 34.3563 7.8626 30.2125C7.8626 27.775 9.08135 25.5 11.1126 24.1188C11.5188 23.7938 12.1688 23.9563 12.4126 24.3625C12.7376 24.7688 12.5751 25.3375 12.1688 25.6625C10.6251 26.7188 9.73135 28.4251 9.73135 30.2938C9.73135 33.3813 12.3313 35.9 15.4188 35.9C18.5876 35.9 21.1063 33.3813 21.1063 30.2938C21.1063 28.4251 20.2126 26.7188 18.6688 25.6625C18.4251 25.5 18.2626 25.175 18.2626 24.9313V17.2125C18.2626 16.725 18.6688 16.2375 19.2376 16.2375C19.7251 16.2375 20.2126 16.6438 20.2126 17.2125V24.4438C22.0813 25.7438 23.1376 27.9375 23.1376 30.2125ZM7.61885 25.2563C7.3751 25.4188 7.13135 25.5 6.8876 25.5H1.2001C0.712597 25.5 0.225098 25.0938 0.225098 24.6063C0.225098 24.1188 0.631347 23.7125 1.2001 23.7125H6.5626L23.4626 7.13755C23.6251 6.97505 23.8688 6.8938 24.1126 6.8938H29.8001C30.2876 6.8938 30.7751 7.30005 30.7751 7.78755C30.7751 8.27505 30.3688 8.6813 29.8001 8.6813H24.4376L7.61885 25.2563Z" fill="#4E4B66"/>
</svg>
