<svg width="41" height="40" viewBox="0 0 41 40" fill="none" xmlns="http://www.w3.org/2000/svg">
<path d="M37.7251 34.6249H35.2063V33.3249H33.9063V34.6249H31.3876V29.5062H33.9063V32.0249H35.2063V29.5062H37.7251V34.6249ZM36.4251 38.4437H32.6063V35.9249H36.4251V38.4437ZM31.6313 26.9874H37.4813L38.7813 28.2874H30.4126L31.6313 26.9874ZM37.0751 25.6874H31.9563V21.8687H37.0751V25.6874ZM21.8001 16.8312C17.5751 16.8312 14.1626 13.4187 14.1626 9.19365C14.1626 5.5374 16.7626 2.4499 20.2563 1.71865C20.8251 1.6374 21.3939 1.55615 22.0438 1.55615C26.1876 1.6374 29.5188 5.0499 29.5188 9.19365C29.4376 13.4187 26.0251 16.8312 21.8001 16.8312ZM12.2126 20.6499H7.09385V16.8312H12.2126V20.6499ZM17.3313 22.5187V23.8187C17.3313 24.1437 17.0063 24.4687 16.6813 24.4687H2.6251C2.3001 24.4687 1.9751 24.2249 1.9751 23.8187V22.5187C1.9751 22.1937 2.3001 21.8687 2.6251 21.8687H16.6813C17.0063 21.8687 17.3313 22.1937 17.3313 22.5187ZM4.33135 34.6249L3.68135 33.3249H15.6251L14.9751 34.6249H4.33135ZM13.5126 38.4437H12.2126V35.9249H13.5126V38.4437ZM7.09385 38.4437H5.79385V35.9249H7.09385V38.4437ZM3.2751 25.6874H16.0313V32.0249H3.2751V25.6874ZM40.2439 27.9624L38.3751 26.0937V20.6499H35.2063V13.3374C35.2063 6.1874 29.3563 0.337402 22.1251 0.337402C22.0438 0.337402 22.0438 0.337402 21.9626 0.337402C21.8813 0.337402 21.8813 0.337402 21.8001 0.337402C21.1501 0.337402 20.5813 0.418652 19.9313 0.499902C13.7563 1.55615 9.04385 6.91865 9.04385 13.3374V15.5312H5.8751V20.6499H2.70635C1.6501 20.6499 0.756348 21.4624 0.756348 22.5187V23.8187C0.756348 24.6312 1.3251 25.3624 2.05635 25.6062V32.8374L3.6001 35.8437H4.65635V39.6624H8.4751V35.8437H10.9938V39.6624H14.8126V35.8437H15.8688L17.4126 32.8374V25.6062C18.1438 25.3624 18.7126 24.6312 18.7126 23.8187V22.5187C18.7126 21.4624 17.8188 20.6499 16.7626 20.6499H13.5938V15.5312H10.4251V13.3374C10.4251 9.9249 11.8876 6.91865 14.1626 4.7249C13.4313 6.0249 12.9438 7.56865 12.9438 9.19365C12.9438 14.0687 16.9251 18.0499 21.8813 18.0499C26.8376 18.0499 30.8188 14.0687 30.8188 9.19365C30.8188 7.08115 30.0876 5.13115 28.7876 3.5874C31.9564 5.6999 33.9876 9.2749 33.9876 13.3374V20.6499H30.8188V26.0937L28.8688 27.9624V29.5062H30.1688V35.8437H31.4688V39.6624H37.8876V35.8437H39.1876V29.5062H40.4876V27.9624H40.2439Z" fill="#4E4B66" stroke="#4E4B66" stroke-width="0.5" stroke-miterlimit="10"/>
</svg>
