<svg width="23" height="24" viewBox="0 0 23 24" fill="none" xmlns="http://www.w3.org/2000/svg">
<path d="M19.6095 16.0804C17.2125 14.6632 14.4051 13.8472 11.5006 13.7234C8.5961 13.8472 5.7887 14.6632 3.39166 16.0804C2.78056 16.4768 2.27928 16.9849 1.92401 17.5682C1.56873 18.1515 1.36832 18.7954 1.33722 19.4534L1 22.5001H22L21.664 19.4534C21.6328 18.7954 21.4323 18.1515 21.0771 17.5682C20.7218 16.9849 20.2206 16.4768 19.6095 16.0804V16.0804Z" stroke="currentColor" stroke-width="2" stroke-linecap="round" stroke-linejoin="round"/>
<path d="M11.5 10.5C12.39 10.5 13.26 10.2361 14.0001 9.74161C14.7401 9.24715 15.3169 8.54434 15.6575 7.72208C15.998 6.89981 16.0872 5.99501 15.9135 5.12209C15.7399 4.24918 15.3113 3.44736 14.682 2.81802C14.0526 2.18869 13.2508 1.7601 12.3779 1.58647C11.505 1.41283 10.6002 1.50195 9.77792 1.84254C8.95566 2.18314 8.25285 2.75991 7.75839 3.49994C7.26392 4.23996 7 5.10999 7 6C7 7.19347 7.47411 8.33807 8.31802 9.18198C9.16193 10.0259 10.3065 10.5 11.5 10.5V10.5Z" stroke="currentColor" stroke-width="2" stroke-linecap="round" stroke-linejoin="round"/>
</svg>
