<svg width="25" height="24" viewBox="0 0 25 24" fill="none" xmlns="http://www.w3.org/2000/svg">
<path d="M2 1.5H4.34033C4.78693 1.50001 5.2201 1.64663 5.56791 1.91552C5.91572 2.1844 6.15723 2.55938 6.25236 2.97819L6.88524 5.74647M6.88524 5.74647L7.96458 11.4766C8.20574 12.7774 8.91543 13.9556 9.96965 14.8052C11.0239 15.6549 12.3556 16.122 13.7322 16.125H16.3727C17.7048 16.1223 18.9963 15.6848 20.0351 14.8844C21.0738 14.0841 21.798 12.9684 22.0888 11.7207L23.0878 7.47699C23.1371 7.27043 23.1374 7.05586 23.0886 6.84918C23.0398 6.6425 22.9433 6.449 22.806 6.283C22.6688 6.11699 22.4944 5.98274 22.2957 5.89019C22.0971 5.79763 21.8793 5.74914 21.6586 5.74831L6.88524 5.74647Z" stroke="currentColor" stroke-width="2" stroke-linecap="round"/>
<path d="M9.3125 22.5C9.76123 22.5 10.125 22.1362 10.125 21.6875C10.125 21.2388 9.76123 20.875 9.3125 20.875C8.86377 20.875 8.5 21.2388 8.5 21.6875C8.5 22.1362 8.86377 22.5 9.3125 22.5Z" stroke="currentColor" stroke-width="2"/>
<path d="M20.6875 22.5C21.1362 22.5 21.5 22.1362 21.5 21.6875C21.5 21.2388 21.1362 20.875 20.6875 20.875C20.2388 20.875 19.875 21.2388 19.875 21.6875C19.875 22.1362 20.2388 22.5 20.6875 22.5Z" stroke="currentColor" stroke-width="2"/>
</svg>
