<svg width="44" height="44" viewBox="0 0 44 44" fill="none" xmlns="http://www.w3.org/2000/svg">
<path d="M22 0C9.84677 0 0 9.84677 0 22C0 34.1532 9.84677 44 22 44C34.1532 44 44 34.1532 44 22C44 9.84677 34.1532 0 22 0ZM32.7339 15.0806L29.1855 32.1129C28.9194 33.3548 28.2097 33.621 27.1452 33.0887L21.6452 29.0081L18.9839 31.5806C18.7177 31.8468 18.4516 32.1129 17.9194 32.1129L18.2742 26.5242L28.4758 17.2984C28.9194 16.9435 28.3871 16.6774 27.7661 17.0323L15.1694 25.0161L9.75806 23.3306C8.60484 22.9758 8.60484 22.0887 10.0242 21.5565L31.2258 13.3952C32.2016 13.0403 33.0887 13.6613 32.7339 15.0806Z" fill="#6E7191"/>
</svg>
