<svg width="44" height="44" viewBox="0 0 44 44" fill="none" xmlns="http://www.w3.org/2000/svg">
    <path d="M3.09284 3.09284C0 6.18566 0 11.1641 0 21.12V22.88C0 32.8359 0 37.8144 3.09284 40.9071C6.18566 44 11.1641 44 21.12 44H22.88C32.8359 44 37.8144 44 40.9071 40.9071C44 37.8144 44 32.8359 44 22.88V21.12C44 11.1641 44 6.18566 40.9071 3.09284C37.8144 0 32.8359 0 22.88 0H21.12C11.1641 0 6.18566 0 3.09284 3.09284ZM7.425 13.3834H12.4484C12.6134 21.78 16.3166 25.3366 19.25 26.07V13.3834H23.98V20.625C26.8766 20.3134 29.92 17.0134 30.9466 13.3834H35.6766C35.2897 15.2659 34.5184 17.0483 33.4111 18.6194C32.304 20.1903 30.8846 21.5159 29.2416 22.5134C31.076 23.424 32.6962 24.7137 33.9951 26.297C35.294 27.8804 36.2421 29.7214 36.7766 31.6984H31.57C31.0902 29.9811 30.1139 28.4438 28.7635 27.2794C27.4133 26.1151 25.7491 25.3754 23.98 25.1534V31.6984H23.4116C13.3834 31.6984 7.66334 24.8234 7.425 13.3834Z" fill="#A0A3BC"/>
</svg>
