<svg width="129" height="54" viewBox="0 0 129 54" fill="none" xmlns="http://www.w3.org/2000/svg">
<path d="M26.9904 42.3404C30.9163 42.3404 34.6814 40.7808 37.4574 38.0048C40.2335 35.2288 41.793 31.4636 41.793 27.5377C41.7921 23.6124 40.2322 19.8482 37.4562 17.0729C34.6803 14.2976 30.9157 12.7385 26.9904 12.7385C23.0651 12.7385 19.3005 14.2976 16.5245 17.0729C13.7486 19.8482 12.1886 23.6124 12.1877 27.5377C12.1877 31.4636 13.7473 35.2288 16.5233 38.0048C19.2994 40.7808 23.0645 42.3404 26.9904 42.3404V42.3404Z" stroke="#A0A3BC" stroke-width="2"/>
<path d="M18.6132 40.1351C16.3904 41.2532 14.2003 41.601 13.223 40.7662C10.7806 38.6842 14.3009 30.5541 21.0866 22.621C27.8723 14.6879 35.3545 9.93555 37.7985 12.0234C38.8186 12.8942 38.7985 14.8161 37.9368 17.3373" stroke="#A0A3BC" stroke-width="2"/>
<path d="M35.2203 40.1351C37.4465 41.2532 39.8101 41.601 40.7873 40.7662C43.2297 38.6842 39.7095 30.5541 32.9204 22.621C26.1314 14.6879 18.6551 9.93555 16.2127 12.0234C15.1926 12.8942 15.2119 14.8161 16.0735 17.3373" stroke="#A0A3BC" stroke-width="2"/>
<path d="M41.4954 25.1583C44.7642 26.0073 45.8613 26.9695 45.8613 28.3885C45.8613 31.2986 37.3834 33.6052 26.9324 33.6052C16.4815 33.6052 8.04297 31.6824 8.04297 28.5762C8.04297 26.9486 10.0017 25.8531 12.4852 24.9856" stroke="#A0A3BC" stroke-width="2.086"/>
<path d="M26.9359 51.8718C30.2109 51.8718 33.4538 51.2267 36.4794 49.9733C39.5051 48.7199 42.2542 46.8827 44.5697 44.5668C46.8853 42.2508 48.722 39.5014 49.9749 36.4756C51.2278 33.4497 51.8724 30.2067 51.8718 26.9317C51.8707 20.319 49.2431 13.9776 44.5668 9.30208C39.8905 4.62659 33.5486 2 26.9359 2C20.3232 2 13.9813 4.62659 9.30504 9.30208C4.62877 13.9776 2.00111 20.319 2 26.9317C1.99945 30.2067 2.64403 33.4497 3.89693 36.4756C5.14983 39.5014 6.98651 42.2508 9.30208 44.5668C11.6176 46.8827 14.3667 48.7199 17.3924 49.9733C20.418 51.2267 23.6609 51.8718 26.9359 51.8718V51.8718Z" stroke="#A0A3BC" stroke-width="3"/>
<path d="M19.1897 37.1371L27.0239 20.5861L34.8774 37.1363H31.8902L27.0348 26.874L22.1827 37.1371H19.1897Z" fill="white"/>
<path d="M27.0231 20.5853L19.1897 37.1363H22.1827L27.0357 26.8731L31.8902 37.1355H34.8766L27.0231 20.5853Z" fill="#A0A3BC" stroke="#A0A3BC" stroke-width="2"/>
<path d="M65.481 22.1107L67.0936 16.8303L68.7079 22.1107H65.481ZM57.8538 29.5887H63.2791L64.3075 26.2159H69.8813L70.9072 29.5887H76.3317L70.0279 11.1141H64.1609L57.8538 29.5887ZM77.6853 29.5887H86.7801C90.6205 29.5887 92.9372 27.2418 92.9372 24.3083C92.9488 23.6303 92.8103 22.9582 92.5317 22.34C92.253 21.7219 91.8411 21.173 91.3254 20.7327C90.8416 20.328 90.2975 20.0014 89.7128 19.7647C90.1683 19.5396 90.5843 19.2424 90.9449 18.8846C91.3426 18.5066 91.6591 18.0515 91.8753 17.5472C92.0914 17.0428 92.2026 16.4998 92.2021 15.9511C92.2021 13.2824 90.0028 11.1124 86.1909 11.1124H77.6895L77.6853 29.5887ZM82.8215 18.2987V15.0727H85.1684C85.3911 15.0572 85.6147 15.0872 85.8255 15.1608C86.0363 15.2345 86.23 15.3502 86.3946 15.5011C86.5593 15.652 86.6915 15.8347 86.7833 16.0383C86.8751 16.2419 86.9245 16.462 86.9285 16.6853C86.9246 16.9086 86.8753 17.1288 86.7835 17.3325C86.6918 17.5362 86.5596 17.7191 86.3949 17.87C86.2303 18.021 86.0366 18.1368 85.8257 18.2105C85.6149 18.2842 85.3912 18.3142 85.1684 18.2987H82.8215ZM82.8215 25.6292V21.814H85.6075C85.8676 21.8036 86.1272 21.8448 86.3713 21.9351C86.6154 22.0255 86.8393 22.1631 87.0301 22.3403C87.2208 22.5174 87.3747 22.7304 87.4828 22.9672C87.5909 23.204 87.6512 23.4598 87.6602 23.7199C87.6512 23.9801 87.5909 24.2359 87.4828 24.4726C87.3747 24.7094 87.2208 24.9225 87.0301 25.0996C86.8393 25.2767 86.6154 25.4144 86.3713 25.5047C86.1272 25.595 85.8676 25.6362 85.6075 25.6259L82.8215 25.6292ZM98.7381 29.5878H103.868V16.0994H108.854V11.1141H93.7527V16.0994H98.7381V29.5878ZM123.359 20.3514C123.391 20.932 123.304 21.513 123.106 22.0595C122.907 22.6059 122.6 23.1065 122.203 23.5312C121.805 23.9558 121.326 24.2957 120.794 24.5304C120.262 24.765 119.688 24.8896 119.107 24.8967C118.525 24.8896 117.951 24.765 117.419 24.5304C116.887 24.2957 116.408 23.9558 116.011 23.5312C115.614 23.1065 115.307 22.6059 115.108 22.0595C114.909 21.513 114.823 20.932 114.855 20.3514C114.823 19.7708 114.909 19.1898 115.108 18.6433C115.307 18.0968 115.614 17.5962 116.011 17.1716C116.408 16.7469 116.887 16.4071 117.419 16.1724C117.951 15.9377 118.525 15.8131 119.107 15.8061C119.688 15.8131 120.262 15.9377 120.794 16.1724C121.326 16.4071 121.805 16.7469 122.203 17.1716C122.6 17.5962 122.907 18.0968 123.106 18.6433C123.304 19.1898 123.391 19.7708 123.359 20.3514ZM109.723 20.3514C109.694 21.5987 109.916 22.8392 110.376 23.9991C110.836 25.159 111.524 26.2147 112.399 27.1036C113.275 27.9925 114.32 28.6965 115.473 29.1738C116.626 29.651 117.863 29.8919 119.11 29.882C120.358 29.8919 121.595 29.651 122.748 29.1738C123.9 28.6965 124.946 27.9925 125.821 27.1036C126.697 26.2147 127.385 25.159 127.844 23.9991C128.304 22.8392 128.526 21.5987 128.498 20.3514C128.526 19.104 128.304 17.8636 127.844 16.7037C127.385 15.5438 126.697 14.4881 125.821 13.5991C124.946 12.7102 123.9 12.0063 122.748 11.529C121.595 11.0517 120.358 10.8109 119.11 10.8207C117.863 10.8109 116.626 11.0517 115.473 11.529C114.32 12.0063 113.275 12.7102 112.399 13.5991C111.524 14.4881 110.836 15.5438 110.376 16.7037C109.916 17.8636 109.694 19.104 109.723 20.3514Z" fill="#A0A3BC"/>
<path d="M58.2031 40.2264C58.4755 41.0312 58.9898 41.7322 59.6757 42.2336C60.3616 42.735 61.1857 43.0122 62.0352 43.0275C62.5767 43.0316 63.1135 42.9268 63.6138 42.7195C64.1141 42.5122 64.5677 42.2065 64.9476 41.8206C65.3275 41.4346 65.626 40.9763 65.8255 40.4728C66.0249 39.9694 66.1212 39.4309 66.1086 38.8895C66.1208 38.3483 66.0243 37.8102 65.8247 37.307C65.6251 36.8038 65.3265 36.3458 64.9467 35.9601C64.5668 35.5745 64.1133 35.269 63.6132 35.0618C63.1131 34.8547 62.5765 34.75 62.0352 34.7541C61.1774 34.7654 60.3453 35.0487 59.6589 35.5633C58.9725 36.0778 58.4671 36.797 58.2157 37.6172L60.5072 37.8083C60.6028 37.6351 60.7228 37.4764 60.8634 37.3373C61.0162 37.1816 61.199 37.0584 61.4006 36.9751C61.6023 36.8919 61.8187 36.8503 62.0368 36.8528C62.2918 36.8447 62.5455 36.8916 62.7807 36.9904C63.0159 37.0892 63.227 37.2375 63.3997 37.4253C63.5518 37.5935 63.6725 37.7877 63.7559 37.9986H61.2968V39.783H63.7534C63.6217 40.1288 63.3854 40.4248 63.0774 40.6298C62.7693 40.8348 62.405 40.9384 62.0352 40.9262C61.8197 40.9347 61.6047 40.8997 61.4031 40.8232C61.2015 40.7468 61.0174 40.6304 60.8617 40.4812C60.7194 40.3532 60.5995 40.2022 60.5072 40.0345L58.2031 40.2264ZM66.4715 42.9001C66.5633 42.9277 66.6568 42.949 66.7515 42.9638C66.9522 43.0052 67.1566 43.0265 67.3616 43.0275C68.7756 43.0275 69.7043 42.072 69.8442 40.4812L70.0957 37.0448H71.8818V42.9001H74.1096V34.8798H68.1269L67.7447 39.9087C67.6944 40.5834 67.3499 40.9271 66.7263 40.9271H66.4749L66.4715 42.9001ZM75.4993 42.9001H81.6102V40.9262H77.7279V39.783H81.1644V37.872H77.7279V36.8495H81.4828V34.8798H75.5001L75.4993 42.9001ZM82.7912 42.9001H85.019V39.3991L87.2452 42.9001H89.7915L86.9904 38.8267L89.5367 34.8798H87.0541L85.0173 38.2785V34.8798H82.7887L82.7912 42.9001ZM92.2171 42.9001H94.4441V37.0439H96.6073V34.8798H90.053V37.0439H92.2154L92.2171 42.9001ZM97.3994 42.9001H99.6272V40.6086H100.773C101.162 40.6339 101.551 40.5781 101.917 40.4448C102.283 40.3115 102.617 40.1035 102.899 39.8341C103.18 39.5647 103.402 39.2398 103.551 38.8799C103.7 38.5201 103.773 38.1332 103.764 37.7438C103.773 37.3543 103.7 36.9673 103.551 36.6075C103.402 36.2476 103.179 35.9227 102.898 35.6534C102.616 35.384 102.282 35.1762 101.916 35.043C101.55 34.9098 101.16 34.8543 100.771 34.8798H97.3977L97.3994 42.9001ZM99.6272 38.5719V36.9165H100.58C100.693 36.9121 100.806 36.9301 100.912 36.9693C101.017 37.0086 101.115 37.0683 101.197 37.1452C101.28 37.222 101.347 37.3145 101.394 37.4172C101.441 37.5199 101.467 37.6309 101.471 37.7438C101.467 37.8567 101.441 37.9676 101.394 38.0704C101.347 38.1731 101.28 38.2655 101.197 38.3424C101.115 38.4192 101.017 38.479 100.912 38.5182C100.806 38.5575 100.693 38.5754 100.58 38.571L99.6272 38.5719ZM104.618 42.9001H106.591L109.582 38.5073V42.8993H111.81V34.8798H109.833L106.844 39.2717V34.8798H104.616L104.618 42.9001ZM113.2 42.9001H115.428V39.3991L117.656 42.9001H120.201L117.401 38.8267L119.946 34.8798H117.461L115.424 38.2785V34.8798H113.199L113.2 42.9001ZM123.78 39.6539L124.48 37.3633L125.18 39.6539H123.78ZM120.47 42.9001H122.825L123.27 41.4367H125.689L126.135 42.9001H128.49L125.753 34.8798H123.207L120.47 42.9001Z" fill="#A0A3BC"/>
</svg>
