<svg width="29" height="28" viewBox="0 0 29 28" fill="none" xmlns="http://www.w3.org/2000/svg">
<g clip-path="url(#clip0_1582_1320)">
<path d="M9.51797 1.34655C9.09687 0.329358 7.98672 -0.212048 6.92578 0.0777956L2.11328 1.3903C1.16172 1.6528 0.5 2.51686 0.5 3.50123C0.5 17.0309 11.4703 28.0012 25 28.0012C25.9844 28.0012 26.8484 27.3395 27.1109 26.388L28.4234 21.5755C28.7133 20.5145 28.1719 19.4044 27.1547 18.9833L21.9047 16.7958C21.0133 16.4239 19.9797 16.6809 19.3727 17.4301L17.1633 20.1262C13.3133 18.3051 10.1961 15.188 8.375 11.338L11.0711 9.13405C11.8203 8.52155 12.0773 7.49342 11.7055 6.60201L9.51797 1.35201V1.34655Z" fill="white"/>
</g>
<defs>
<clipPath id="clip0_1582_1320">
<rect width="28" height="28" fill="white" transform="translate(0.5)"/>
</clipPath>
</defs>
</svg>
