<?xml version="1.0" encoding="UTF-8"?><!DOCTYPE svg PUBLIC "-//W3C//DTD SVG 1.1//EN" "http://www.w3.org/Graphics/SVG/1.1/DTD/svg11.dtd"><svg xmlns="http://www.w3.org/2000/svg" xmlns:xlink="http://www.w3.org/1999/xlink"><defs>
    <clipPath id="a">
      <path fill="#fff" transform="translate(.5)" d="M0 0h28v28H0z"/>
    </clipPath>
  </defs><symbol id="advantages-1"><g fill="none">
  <path d="M34.696 9.58a1.21 1.21 0 0 0-1.992.925v2.018h-9.506a1.211 1.211 0 0 0-1.21 1.21v6.46a1.211 1.211 0 0 0 1.21 1.21h9.506v2.019a1.21 1.21 0 0 0 1.992.926l7.655-6.46a1.211 1.211 0 0 0 0-1.85L34.696 9.58Zm.43 11.236v-.623a1.212 1.212 0 0 0-1.21-1.211h-9.507v-4.037h9.506a1.212 1.212 0 0 0 1.211-1.211v-.623l4.566 3.852-4.566 3.853Z" fill="#4E4B66" stroke="#4E4B66" stroke-width="1.25"/>
  <path d="M58.997 11.182a9.574 9.574 0 0 0-1.283-.086h-6.731a5.242 5.242 0 0 0-2.851.844V6.483A5.328 5.328 0 0 0 42.81 1.16H15.336A5.651 5.651 0 0 0 9.69 6.805v1.808H7.176a1.21 1.21 0 1 0 0 2.42h2.516v2.546H2.209a1.21 1.21 0 0 0-1.15 1.682 1.21 1.21 0 0 0 1.15.739h7.483v2.546H5.935a1.21 1.21 0 1 0 0 2.42h3.757v2.546H2.209a1.211 1.211 0 1 0 0 2.42h7.483V28.2a6.435 6.435 0 0 0 6.428 6.428h1.026v.03a6.179 6.179 0 1 0 12.358 0v-.03h21.18v.03a6.179 6.179 0 1 0 12.358 0v-.03h.492a4.483 4.483 0 0 0 4.478-4.478v-8.761a10.278 10.278 0 0 0-9.006-10.2l-.01-.007Zm-.311 2.4a7.86 7.86 0 0 1 6.9 7.8v.889h-8.194a1.809 1.809 0 0 1-1.808-1.806v-6.951h2.13c.325 0 .65.022.973.067h-.001ZM23.323 38.418a3.757 3.757 0 1 1 2.656-1.1 3.76 3.76 0 0 1-2.656 1.103v-.003Zm0-9.936a6.184 6.184 0 0 0-5.668 3.726H16.12a4.01 4.01 0 0 1-4.006-4.006v-2.267h3.757a1.211 1.211 0 0 0 0-2.421h-3.757v-2.545h6.24a1.211 1.211 0 0 0 0-2.421h-6.24v-2.546h3.757a1.21 1.21 0 0 0 0-2.421h-3.757v-2.545h6.24a1.211 1.211 0 0 0 0-2.421h-6.24V6.807a3.227 3.227 0 0 1 3.223-3.223H42.81a2.9 2.9 0 0 1 2.9 2.9v25.729H28.992a6.185 6.185 0 0 0-5.668-3.727l-.001-.004Zm33.534 9.936a3.757 3.757 0 1 1 2.656-1.1 3.76 3.76 0 0 1-2.657 1.103v-.003Zm6.67-6.21h-1a6.175 6.175 0 0 0-11.336 0h-3.057V16.37a2.854 2.854 0 0 1 2.85-2.851h2.18v6.949a4.233 4.233 0 0 0 4.23 4.229h8.19v5.459a2.058 2.058 0 0 1-2.055 2.055l-.002-.003Z" fill="#4E4B66" stroke="#4E4B66"/>
</g></symbol><symbol id="advantages-2"><g fill="none">
  <path d="m51.514 18.983-.886-4.438-4.662.165c-1.832.003-10.985-.327-15.091-6.927L26.437.842l-4.494 6.99c-3.994 6.551-13.206 6.825-14.979 6.825l-4.718-.165-.886 4.438a54.386 54.386 0 0 0 .5 17.753 38.15 38.15 0 0 0 9.32 18.477v-2.44h2.94a34.223 34.223 0 0 1-8.544-16.811 43.9 43.9 0 0 1-.387-16.2l.222-1.276 1.554.056c2.163 0 13.147-.387 18.253-8.6l1.276-2 1.22 1.941c5.105 8.269 16.085 8.653 18.308 8.653l1.5-.056.222 1.276a43.852 43.852 0 0 1-.387 16.2 34.711 34.711 0 0 1-8.544 16.811h3.105v2.328a38.464 38.464 0 0 0 9.212-18.418 47.555 47.555 0 0 0 .384-17.641Z" fill="#4E4B66"/>
  <path d="m39.642 25.532-.334-1.615-1.776.056c-1.108 0-6.878-.222-9.431-4.438l-1.61-2.5-1.607 2.562c-2.553 4.16-8.323 4.381-9.433 4.381l-1.776-.06-.331 1.61a25.558 25.558 0 0 0 .222 9.6 20.324 20.324 0 0 0 12.15 14.982l.778.39.777-.334a20.237 20.237 0 0 0 12.146-14.979 25.71 25.71 0 0 0 .222-9.655M25.493 40.29l-4.881-4.88 2.5-2.5 2.38 2.387 5.272-5.27 2.5 2.5-7.771 7.763Z" fill="#4E4B66"/>
</g></symbol><symbol id="advantages-3"><g fill="none">
  <path d="M47.84 43.463 33.525 16.572a5.61 5.61 0 0 0-4.415-2.944l-10.5-1a17.204 17.204 0 0 0-1.742-4.686 16.571 16.571 0 0 0-5.55-6.288C8.772.117 6.231-.146 4.225.92 2.151 1.988 1.014 4.264.88 7.208c.013 2.848.726 5.65 2.075 8.158.77 1.5 1.764 2.877 2.945 4.081L.814 28.679a5.5 5.5 0 0 0 0 5.284l14.247 26.824a5.605 5.605 0 0 0 4.95 2.948c.912 0 1.81-.23 2.61-.668l22.945-12.179a5.506 5.506 0 0 0 2.273-7.425M5.03 7.34c.066-1.338.466-2.409 1.137-2.743a3.12 3.12 0 0 1 2.875.6 12.344 12.344 0 0 1 4.08 4.684c.402.75.736 1.534 1 2.343l-.469-.066a5.63 5.63 0 0 0-5.414 2.877l-.2.4a20.05 20.05 0 0 1-1.406-2.141 12.876 12.876 0 0 1-1.6-5.954m38.525 39.936L20.615 59.449a1.373 1.373 0 0 1-1.807-.535L4.494 32.023a1.408 1.408 0 0 1 0-1.269l4.748-8.7a8.087 8.087 0 0 0 3.747 1c.335.01.67-.011 1-.066a2.06 2.06 0 0 0 1.673-2.404 2.012 2.012 0 0 0-2.405-1.672 3.483 3.483 0 0 1-2.009-.466l.671-1.272a1.33 1.33 0 0 1 1.2-.737h.135l15.451 1.4a1.407 1.407 0 0 1 1.071.737l14.317 26.828a1.41 1.41 0 0 1-.535 1.873" fill="#4E4B66"/>
  <path d="m26.619 47.097-3.172-6.225 4.466-2.273c3.783-1.928 4.559-5.6 3.007-8.646-1.567-3.073-4.95-4.589-8.763-2.649l-8.195 4.174 8.928 17.52 3.729-1.901Zm-.878-11.529-3.97 2.021-2.405-4.728 3.967-2.021a2.634 2.634 0 0 1 3.777 1.053 2.65 2.65 0 0 1-1.37 3.675Z" fill="#4E4B66"/>
  <path d="m17.386 46.448 1.182 2.319 12.657-6.45-1.182-2.319-12.657 6.45Z" fill="#4E4B66"/>
  <path d="m22.527 48.344 1.546 3.027 3.744-1.9-1.546-3.034-3.744 1.907Z" fill="#2B2E34"/>
</g></symbol><symbol id="arrow-slider"><g fill="none">
  <path d="m1 11 5-5-5-5" stroke="#fff" stroke-width="2" stroke-linecap="round" stroke-linejoin="round"/>
</g></symbol><symbol id="arrow"><g fill="none">
  <path d="m1 1 5 5 5-5" stroke="currentColor" stroke-width="2" stroke-linecap="round" stroke-linejoin="round"/>
</g></symbol><symbol id="basket"><g fill="none">
  <path d="M1.75 1.75h2.73c.521 0 1.027.171 1.433.485.405.313.687.751.798 1.24l.738 3.23m0 0 1.26 6.684a6.522 6.522 0 0 0 2.339 3.884 7.025 7.025 0 0 0 4.39 1.54h3.08a7.03 7.03 0 0 0 4.273-1.448 6.543 6.543 0 0 0 2.396-3.69l1.165-4.952c.058-.24.058-.491.001-.732a1.622 1.622 0 0 0-.33-.66 1.707 1.707 0 0 0-.595-.46 1.777 1.777 0 0 0-.743-.165L7.449 6.704Z" stroke="#EDEDF4" stroke-width="2" stroke-linecap="round"/>
  <path d="M10.281 26.25a.948.948 0 1 0 0-1.896.948.948 0 0 0 0 1.896Zm13.271 0a.948.948 0 1 0 0-1.896.948.948 0 0 0 0 1.896Z" stroke="#EDEDF4" stroke-width="2"/>
</g></symbol><symbol id="categories-1"><g fill="none">
  <path d="M26.35 20.906c-1.706-1.218-3.656-1.868-5.85-1.868-.813 0-1.706.08-2.519.324L11.725 8.8c-.244-.488-.894-.65-1.381-.406-.488.243-.65.893-.406 1.381l6.093 10.237c-.568.244-.975.57-1.462.894L3.762 9.937C8.394 5.794 14.325 3.52 20.5 3.52c6.256 0 12.106 2.275 16.737 6.418L26.35 20.907ZM40.487 8.8A28.22 28.22 0 0 0 20.5.512C12.944.512 5.875 3.437.512 8.8a1.521 1.521 0 0 0 0 2.112l13 13.082c.244.244.65.406 1.057.406.406 0 .812-.162 1.056-.406a6.925 6.925 0 0 1 2.031-1.382l1.056 1.788c-.162.325-.243.65-.243.975 0 1.137.893 2.031 2.031 2.031a2.011 2.011 0 0 0 2.031-2.031 2.012 2.012 0 0 0-2.031-2.031h-.081l-.813-1.3c.244-.082.569-.082.813-.082a6.82 6.82 0 0 1 4.875 2.032 1.52 1.52 0 0 0 2.112 0l13-13c.65-.569.65-1.544.081-2.194Z" fill="#4E4B66"/>
</g></symbol><symbol id="categories-2"><g fill="none">
  <path d="M5.019 13.394c-.488 0-.975-.406-.975-.894s.406-.894.975-.894h2.844c.487 0 .975.406.975.894s-.407.894-.975.894H5.019Zm.975-3.738c-.569 0-.975-.406-.975-.893 0-.488.406-.894.975-.894h1.869c.487 0 .975.406.975.894 0 .487-.407.893-.975.893h-1.87ZM5.019 5.92c-.488 0-.975-.406-.975-.894 0-.487.406-.975.975-.975h2.844c.487 0 .975.406.975.975 0 .488-.407.894-.975.894H5.019ZM15.5 32.08a1.839 1.839 0 0 0 1.869-1.869c0-1.056-.894-1.868-1.869-1.868a1.839 1.839 0 0 0-1.869 1.868 1.84 1.84 0 0 0 1.87 1.87Zm-.975-5.525V20.87c0-.488.406-.894.975-.894.488 0 .975.406.975.894v5.687a3.755 3.755 0 0 1 2.844 3.656c0 2.032-1.706 3.738-3.819 3.738-2.112 0-3.819-1.706-3.819-3.738 0-1.706 1.22-3.168 2.844-3.656Zm-1.869-11.294c0 .488-.406.894-.975.894-.568 0-.975-.406-.975-.893V5.024c0-2.6 2.113-4.631 4.794-4.631 2.6 0 4.794 2.112 4.794 4.631v2.763c0 .487-.406.893-.975.893s-.975-.406-.975-.893V5.025c0-1.544-1.3-2.844-2.844-2.844a2.826 2.826 0 0 0-2.844 2.844v10.237Zm10.482 14.95c0 4.144-3.413 7.476-7.638 7.476s-7.637-3.332-7.637-7.476a7.374 7.374 0 0 1 3.25-6.093c.406-.325 1.056-.163 1.3.244.325.406.162.974-.244 1.3a5.56 5.56 0 0 0-2.438 4.63c0 3.088 2.6 5.607 5.688 5.607 3.169 0 5.687-2.519 5.687-5.606a5.56 5.56 0 0 0-2.437-4.631c-.244-.163-.406-.488-.406-.732v-7.719c0-.487.406-.974.975-.974.487 0 .975.406.975.974v7.232c1.868 1.3 2.925 3.494 2.925 5.768Zm-15.52-4.956a1.31 1.31 0 0 1-.73.244H1.2c-.487 0-.975-.406-.975-.894 0-.487.406-.894.975-.894h5.363l16.9-16.574c.162-.163.406-.244.65-.244H29.8c.488 0 .975.406.975.894 0 .487-.406.893-.975.893h-5.362L7.618 25.256Z" fill="#4E4B66"/>
</g></symbol><symbol id="categories-3"><g fill="none">
  <path d="M32.45 26.875h-1.38V14.363h1.381v12.512Zm-6.825-1.381v-9.75h4.063v9.75h-4.063Zm-1.3 12.512c0 .407-.325.731-.65.731h-4.063c-.406 0-.65-.325-.65-.73v-1.382c0-.325-.243-.65-.568-.65l-5.281-.894a2.796 2.796 0 0 1-2.275-2.762v-3.982h13.568v9.67h-.08ZM22.294 41.5h-1.381v-1.381h1.38V41.5ZM5.313 14.363h6.824v7.718c-1.543.325-2.68 1.788-2.68 3.413v1.381H5.393V14.363h-.081Zm-2.763-.65h1.381v13.893H2.55V13.712Zm19.013-6.988v1.381c-.732 0-1.382.65-1.382 1.382V11.6a1.37 1.37 0 0 0 1.381 1.381V22H18.15v-2.113c0-1.137-.894-2.112-2.031-2.112h-2.681V6.725h8.124Zm-9.507-4.144h10.888v2.763h-2.031V3.962H19.53v1.382h-1.38V3.962h-1.381v1.382h-1.381V3.962h-1.382v1.382h-2.031l.081-2.763ZM25.625 11.6h-4.063V9.488h4.063V11.6Zm-1.3 3.494v7.637c-.406-.325-.894-.569-1.381-.65v-9.1h1.381v2.113Zm-11.619 8.368h9.506c1.138 0 2.032.894 2.032 2.113v1.3H10.675v-1.381c0-1.138.975-2.032 2.031-2.032Zm4.144-1.38h-3.413v-2.763h2.682c.406 0 .65.325.65.731v2.031h.081Zm16.25-9.1h-2.681c-.406 0-.65.324-.65.73v.732h-4.063v-1.382c.732 0 1.381-.65 1.381-1.38V9.568a1.37 1.37 0 0 0-1.38-1.382h-2.682v-1.38c.731 0 1.381-.65 1.381-1.382V2.663a1.37 1.37 0 0 0-1.381-1.382H12.056c-.731 0-1.381.65-1.381 1.382v2.762a1.37 1.37 0 0 0 1.381 1.381v6.256H5.313c0-.406-.325-.73-.65-.73H1.98c-.406 0-.65.324-.65.73v15.275c0 .407.325.732.65.732h2.682c.406 0 .65-.325.65-.732h4.062v3.982c0 2.031 1.463 3.819 3.412 4.143l4.713.813v.813c0 1.137.894 2.112 2.031 2.112v1.3a1.37 1.37 0 0 0 1.382 1.381h1.38c.732 0 1.382-.65 1.382-1.381v-1.381c1.137 0 2.031-.894 2.031-2.113V26.875h4.063v.731c0 .406.325.731.65.731H33.1c.406 0 .65-.325.65-.73V13.712c.081-.407-.244-.732-.65-.732Z" fill="#4E4B66" stroke="#4E4B66" stroke-width=".706" stroke-miterlimit="10"/>
</g></symbol><symbol id="categories-4"><g fill="none">
  <path d="M37.725 34.625h-2.519v-1.3h-1.3v1.3h-2.518v-5.119h2.518v2.519h1.3v-2.519h2.52v5.119Zm-1.3 3.819h-3.819v-2.52h3.82v2.52Zm-4.794-11.457h5.85l1.3 1.3h-8.368l1.218-1.3Zm5.444-1.3h-5.119V21.87h5.12v3.818ZM21.8 16.831a7.629 7.629 0 0 1-7.637-7.637c0-3.657 2.6-6.744 6.093-7.475.57-.082 1.138-.163 1.788-.163 4.144.081 7.475 3.494 7.475 7.638-.081 4.225-3.494 7.637-7.719 7.637Zm-9.587 3.819h-5.12v-3.82h5.12v3.819Zm5.118 1.869v1.3c0 .325-.325.65-.65.65H2.625a.64.64 0 0 1-.65-.65v-1.3c0-.325.325-.65.65-.65h14.056c.325 0 .65.325.65.65Zm-13 12.106-.65-1.3h11.944l-.65 1.3H4.331Zm9.182 3.819h-1.3v-2.52h1.3v2.52Zm-6.42 0h-1.3v-2.52h1.3v2.52ZM3.276 25.687h12.756v6.338H3.275v-6.338Zm36.969 2.275-1.869-1.868V20.65h-3.169v-7.313c0-7.15-5.85-13-13.08-13H21.8c-.65 0-1.219.082-1.869.163C13.756 1.556 9.044 6.919 9.044 13.337v2.194H5.875v5.119H2.706c-1.056 0-1.95.812-1.95 1.869v1.3c0 .812.57 1.543 1.3 1.787v7.231L3.6 35.844h1.056v3.818h3.82v-3.818h2.518v3.818h3.819v-3.818h1.056l1.544-3.007v-7.23c.73-.245 1.3-.976 1.3-1.788v-1.3c0-1.057-.894-1.87-1.95-1.87h-3.17v-5.118h-3.168v-2.194c0-3.412 1.463-6.418 3.738-8.612-.732 1.3-1.22 2.844-1.22 4.469 0 4.875 3.982 8.856 8.938 8.856 4.957 0 8.938-3.981 8.938-8.856a8.635 8.635 0 0 0-2.031-5.607 11.654 11.654 0 0 1 5.2 9.75v7.313h-3.17v5.444l-1.95 1.868v1.544h1.3v6.338h1.3v3.818h6.42v-3.818h1.3v-6.338h1.3v-1.544h-.244Z" fill="#4E4B66" stroke="#4E4B66" stroke-width=".5" stroke-miterlimit="10"/>
</g></symbol><symbol id="categories-5"><g fill="none">
  <path d="M18.012 29.7a8.142 8.142 0 0 1-11.374 0c-3.17-3.087-3.17-8.044 0-11.131m14.381 11.943a1.52 1.52 0 0 0 0-2.112L7.856 15.481a1.521 1.521 0 0 0-2.112 0 1.521 1.521 0 0 0 0 2.113l13.162 12.918c.569.65 1.544.65 2.113 0ZM18.988 6.3a8.142 8.142 0 0 1 11.375 0c3.168 3.087 3.168 8.044 0 11.131M15.981 5.487a1.521 1.521 0 0 0 0 2.113l13.163 12.919a1.521 1.521 0 0 0 2.112 0 1.52 1.52 0 0 0 0-2.113L18.094 5.488a1.388 1.388 0 0 0-2.113 0Zm-1.056 8.126c.569-.57 1.544-.57 2.194 0a1.521 1.521 0 0 1 0 2.112L13.463 19.3l-2.194-2.112 3.656-3.575Zm5.931 5.768c.569-.569 1.544-.569 2.194 0a1.52 1.52 0 0 1 0 2.113l-3.738 3.575-2.193-2.113 3.737-3.575Z" fill="#4E4B66"/>
  <path d="M33.775.856c.569-.569 1.544-.569 2.194 0a1.521 1.521 0 0 1 0 2.113L30.606 8.25l-2.112-2.112 5.28-5.282ZM3.225 35.144c-.569.569-1.544.569-2.194 0-.65-.569-.568-1.544 0-2.113l5.363-5.281 2.112 2.113-5.281 5.28Z" fill="#4E4B66"/>
</g></symbol><symbol id="categories-6"><g fill="none">
  <path d="M18.388 9.4c-.894 0-.894 1.3 0 1.3h3.168c.894 0 .894-1.3 0-1.3h-3.168ZM2.38 4.444C4.17 8.262 7.988 10.7 12.131 10.7h1.138c2.518 0 4.469 2.031 4.469 4.55 0 1.462-.57 2.356-1.463 3.006-.894.65-2.031.975-3.006.894-1.219 0-2.113-.569-2.844-1.462-.569-.813-.975-1.788-1.056-2.682a9.73 9.73 0 0 1 2.681-.406h3.656c.894 0 .894-1.3 0-1.3H12.05c-3.656-.163-8.125 2.519-9.75 6.175V4.444h.081ZM1.731.95a.64.64 0 0 0-.65.65v20.8c0 .731.975.894 1.22.244l1.137-2.438c.975-2.194 2.68-3.819 4.793-4.793a6.935 6.935 0 0 0 1.219 3.006c.894 1.137 2.194 1.95 3.819 2.031 1.3.081 2.681-.325 3.818-1.137 1.138-.813 1.95-2.194 1.95-4.063 0-3.25-2.6-5.85-5.768-5.85H12.13c-3.737 0-7.15-2.194-8.775-5.688L2.22 1.275c0-.163-.244-.325-.488-.325Z" fill="#4E4B66" stroke="#4E4B66" stroke-width=".57" stroke-miterlimit="10"/>
  <path d="M18.388 9.4c-.894 0-.894 1.3 0 1.3h3.168c.894 0 .894-1.3 0-1.3h-3.168ZM2.38 4.444C4.17 8.262 7.988 10.7 12.131 10.7h1.138c2.518 0 4.469 2.031 4.469 4.55 0 1.462-.57 2.356-1.463 3.006-.894.65-2.031.975-3.006.894-1.219 0-2.113-.569-2.844-1.462-.569-.813-.975-1.788-1.056-2.682a9.73 9.73 0 0 1 2.681-.406h3.656c.894 0 .894-1.3 0-1.3H12.05c-3.656-.163-8.125 2.519-9.75 6.175V4.444h.081ZM1.731.95a.64.64 0 0 0-.65.65v20.8c0 .731.975.894 1.22.244l1.137-2.438c.975-2.194 2.68-3.819 4.793-4.793a6.935 6.935 0 0 0 1.219 3.006c.894 1.137 2.194 1.95 3.819 2.031 1.3.081 2.681-.325 3.818-1.137 1.138-.813 1.95-2.194 1.95-4.063 0-3.25-2.6-5.85-5.768-5.85H12.13c-3.737 0-7.15-2.194-8.775-5.688L2.22 1.275c0-.163-.244-.325-.488-.325Z" fill="#4E4B66" stroke="#4E4B66" stroke-width=".57" stroke-miterlimit="10"/>
  <path d="M32.931 4.281c-.975 0-1.868.244-2.681.65l-8.45 4.55c-.325.163-.406.569-.244.894.163.325.569.406.894.244l8.45-4.55c.65-.325 1.381-.569 2.113-.569 1.868 0 3.25.731 4.224 1.869.975 1.137 1.463 2.6 1.544 3.981v1.3c0 3.25-2.6 5.769-5.768 5.769-.732 0-1.463-.325-2.194-.569l-8.45-4.55c-.325-.163-.732-.081-.894.244-.163.325-.081.731.244.893l8.45 4.55h.081c.65.244 1.544.65 2.6.65 3.9 0 7.069-3.168 7.069-7.068v-1.3c0-1.707-.65-3.494-1.869-4.794-1.137-1.3-2.925-2.194-5.119-2.194Z" fill="#4E4B66" stroke="#4E4B66" stroke-width=".57" stroke-miterlimit="10"/>
  <path d="M32.931 4.281c-.975 0-1.868.244-2.681.65l-8.45 4.55c-.325.163-.406.569-.244.894.163.325.569.406.894.244l8.45-4.55c.65-.325 1.381-.569 2.113-.569 1.868 0 3.25.731 4.224 1.869.975 1.137 1.463 2.6 1.544 3.981v1.3c0 3.25-2.6 5.769-5.768 5.769-.732 0-1.463-.325-2.194-.569l-8.45-4.55c-.325-.163-.732-.081-.894.244-.163.325-.081.731.244.893l8.45 4.55h.081c.65.244 1.544.65 2.6.65 3.9 0 7.069-3.168 7.069-7.068v-1.3c0-1.707-.65-3.494-1.869-4.794-1.137-1.3-2.925-2.194-5.119-2.194ZM4.575 6.231h-.894v11.456h.894V6.232Z" fill="#4E4B66" stroke="#4E4B66" stroke-width=".57" stroke-miterlimit="10"/>
  <path d="M4.575 6.231h-.894v11.456h.894V6.232Zm17.713 3.981h-.894v3.575h.894v-3.575Z" fill="#4E4B66" stroke="#4E4B66" stroke-width=".57" stroke-miterlimit="10"/>
  <path d="M22.288 10.212h-.894v3.575h.894v-3.575Z" fill="#4E4B66" stroke="#4E4B66" stroke-width=".57" stroke-miterlimit="10"/>
  <path d="M21.637 13.544h-2.843v.893h2.843v-.893Z" fill="#4E4B66" stroke="#4E4B66" stroke-width=".57" stroke-miterlimit="10"/>
  <path d="M21.637 13.544h-2.843v.893h2.843v-.893Zm-9.099.162c-.57.488-.813 1.22-.57 1.869.245.65.895 1.137 1.626 1.137.731 0 1.381-.487 1.625-1.137s0-1.462-.569-1.869L14 14.6a.631.631 0 0 1 .163.65.61.61 0 0 1-.57.406.611.611 0 0 1-.568-.406.632.632 0 0 1 .163-.65l-.65-.894Z" fill="#4E4B66" stroke="#4E4B66" stroke-width=".57" stroke-miterlimit="10"/>
  <path d="M12.538 13.706c-.57.488-.813 1.22-.57 1.869.245.65.895 1.137 1.626 1.137.731 0 1.381-.487 1.625-1.137s0-1.462-.569-1.869L14 14.6a.631.631 0 0 1 .163.65.61.61 0 0 1-.57.406.611.611 0 0 1-.568-.406.632.632 0 0 1 .163-.65l-.65-.894Z" fill="#4E4B66" stroke="#4E4B66" stroke-width=".57" stroke-miterlimit="10"/>
</g></symbol><symbol id="date"><g fill="none">
  <path d="M12.93 3H3.07C1.925 3 1 3.828 1 4.85v8.3C1 14.172 1.926 15 3.07 15h9.86c1.144 0 2.07-.828 2.07-1.85v-8.3C15 3.828 14.074 3 12.93 3Z" stroke="#A0A3BC" stroke-width="2"/>
  <path d="M4.5 3a.5.5 0 0 1-1 0V1a.5.5 0 0 1 1 0v2Zm8 0a.5.5 0 0 1-1 0V1a.5.5 0 0 1 1 0v2ZM1 5.5a.5.5 0 0 0 0 1h14a.5.5 0 0 0 0-1H1Zm3.623 3.107a.5.5 0 0 0 0 1h1.348a.5.5 0 0 0 0-1H4.623Zm5.217 0a.5.5 0 0 0 0 1h1.348a.5.5 0 1 0 0-1H9.84ZM4.623 11.56a.5.5 0 1 0 0 1h1.348a.5.5 0 0 0 0-1H4.623Zm5.217 0a.5.5 0 1 0 0 1h1.348a.5.5 0 1 0 0-1H9.84Z" stroke="#A0A3BC" stroke-linecap="round" stroke-linejoin="round"/>
</g></symbol><symbol id="nav-basket"><g fill="none">
  <path d="M2 1.5h2.34c.447 0 .88.147 1.228.416.348.268.59.643.684 1.062l.633 2.768m0 0 1.08 5.73a5.59 5.59 0 0 0 2.005 3.33 6.021 6.021 0 0 0 3.762 1.319h2.64a6.025 6.025 0 0 0 3.663-1.24 5.608 5.608 0 0 0 2.054-3.164l.999-4.244c.05-.207.05-.421 0-.628a1.39 1.39 0 0 0-.282-.566 1.462 1.462 0 0 0-.51-.393 1.523 1.523 0 0 0-.637-.142L6.885 5.746Z" stroke="currentColor" stroke-width="2" stroke-linecap="round"/>
  <path d="M9.313 22.5a.813.813 0 1 0 0-1.625.813.813 0 0 0 0 1.625Zm11.375 0a.813.813 0 1 0 0-1.625.813.813 0 0 0 0 1.625Z" stroke="currentColor" stroke-width="2"/>
</g></symbol><symbol id="nav-catalog"><g fill="none">
  <path d="M8.016 1.5H2.484a.984.984 0 0 0-.984.984v5.532c0 .543.44.984.984.984h5.532C8.559 9 9 8.56 9 8.016V2.484a.984.984 0 0 0-.984-.984Zm13.5 0h-5.532a.984.984 0 0 0-.984.984v5.532c0 .543.44.984.984.984h5.532c.543 0 .984-.44.984-.984V2.484a.984.984 0 0 0-.984-.984ZM8.016 15H2.484a.984.984 0 0 0-.984.984v5.532c0 .543.44.984.984.984h5.532c.543 0 .984-.44.984-.984v-5.532A.984.984 0 0 0 8.016 15Zm13.5 0h-5.532a.984.984 0 0 0-.984.984v5.532c0 .543.44.984.984.984h5.532c.543 0 .984-.44.984-.984v-5.532a.984.984 0 0 0-.984-.984Z" stroke="currentColor" stroke-width="2"/>
</g></symbol><symbol id="nav-favorites"><g fill="none">
  <path d="m13.998 17.444 7.971 4.951a.721.721 0 0 0 .679.038.633.633 0 0 0 .257-.216.54.54 0 0 0 .095-.304V6.195c0-1.246-.553-2.44-1.538-3.32-.984-.88-2.32-1.375-3.712-1.375H7.25c-1.392 0-2.728.495-3.712 1.375C2.553 3.755 2 4.949 2 6.195v15.717c0 .107.033.212.095.304a.633.633 0 0 0 .257.216.723.723 0 0 0 .679-.038l7.972-4.95c.44-.274.963-.42 1.498-.42s1.057.147 1.497.42v0Z" stroke="currentColor" stroke-width="2" stroke-linecap="round" stroke-linejoin="round"/>
</g></symbol><symbol id="nav-home"><g fill="none">
  <path d="M24.081 12.191a1.032 1.032 0 0 1-.553-.203l-10.525-8.7-10.525 8.7a.89.89 0 0 1-.325.172.84.84 0 0 1-.7-.11.962.962 0 0 1-.268-.265 1.063 1.063 0 0 1-.156-.358 1.116 1.116 0 0 1 .1-.77.99.99 0 0 1 .24-.296l11.079-9.147A.839.839 0 0 1 13.002 1c.201 0 .397.075.554.214l11.079 9.147c.193.164.321.405.356.67.034.267-.027.537-.172.753a1.05 1.05 0 0 1-.33.29.949.949 0 0 1-.408.117Zm-2.104 9.72v-8.092c0-.27-.098-.528-.27-.718a.883.883 0 0 0-.654-.298.883.883 0 0 0-.652.298 1.07 1.07 0 0 0-.27.718v8.091a1.136 1.136 0 0 1-.288.741.94.94 0 0 1-.673.316H6.836a.94.94 0 0 1-.673-.316 1.136 1.136 0 0 1-.287-.74v-8.092a1.11 1.11 0 0 0-.07-.388 1.03 1.03 0 0 0-.2-.33.924.924 0 0 0-.3-.22.851.851 0 0 0-.706 0 .924.924 0 0 0-.3.22 1.03 1.03 0 0 0-.2.33c-.046.123-.07.255-.07.389v8.09c0 .406.072.808.213 1.183.141.375.348.715.608 1.002.261.287.57.515.911.67.34.155.706.235 1.074.235h12.297c.372.004.74-.072 1.085-.226.344-.153.657-.38.922-.667.264-.287.474-.629.618-1.006.143-.377.218-.782.219-1.19Z" fill="currentColor" stroke="currentColor" stroke-width=".35"/>
</g></symbol><symbol id="nav-profile"><g fill="none">
  <path d="M19.61 16.08c-2.398-1.417-5.205-2.233-8.11-2.357-2.904.124-5.711.94-8.108 2.357a4.703 4.703 0 0 0-1.468 1.488 3.979 3.979 0 0 0-.587 1.885L1 22.5h21l-.336-3.047a3.981 3.981 0 0 0-.587-1.885 4.703 4.703 0 0 0-1.468-1.488v0ZM11.5 10.5a4.5 4.5 0 1 0 0-9 4.5 4.5 0 0 0 0 9v0Z" stroke="currentColor" stroke-width="2" stroke-linecap="round" stroke-linejoin="round"/>
</g></symbol><symbol id="phone"><g fill="none">
  <g clip-path="url(#a)">
    <path d="M9.518 1.347A2.18 2.18 0 0 0 6.926.077L2.113 1.39A2.194 2.194 0 0 0 .5 3.501c0 13.53 10.97 24.5 24.5 24.5.984 0 1.848-.662 2.11-1.613l1.313-4.813a2.18 2.18 0 0 0-1.268-2.592l-5.25-2.187a2.18 2.18 0 0 0-2.532.634l-2.21 2.696a18.483 18.483 0 0 1-8.788-8.788l2.696-2.204a2.183 2.183 0 0 0 .635-2.532l-2.188-5.25v-.005Z" fill="#fff"/>
  </g>
  
</g></symbol><symbol id="search"><g fill="none">
  <path d="M10.976 20.439a9.464 9.464 0 1 0 0-18.928 9.464 9.464 0 0 0 0 18.928v0Zm11.568 2.105-4.768-4.767" stroke="#F56E1E" stroke-width="3" stroke-linecap="round" stroke-linejoin="round"/>
</g></symbol><symbol id="tg-footer"><g fill="none">
  <path d="M22 0C9.847 0 0 9.847 0 22s9.847 22 22 22 22-9.847 22-22S34.153 0 22 0Zm10.734 15.08-3.549 17.033c-.266 1.242-.975 1.508-2.04.976l-5.5-4.08-2.661 2.572c-.266.266-.532.532-1.065.532l.355-5.589 10.202-9.226c.443-.354-.089-.62-.71-.266L15.17 25.016l-5.41-1.685c-1.154-.355-1.154-1.242.265-1.774l21.202-8.162c.976-.355 1.863.266 1.508 1.686Z" fill="#A0A3BC"/>
</g></symbol><symbol id="tg"><g fill="none">
  <path d="M22 0C9.847 0 0 9.847 0 22s9.847 22 22 22 22-9.847 22-22S34.153 0 22 0Zm10.734 15.08-3.549 17.033c-.266 1.242-.975 1.508-2.04.976l-5.5-4.08-2.661 2.572c-.266.266-.532.532-1.065.532l.355-5.589 10.202-9.226c.443-.354-.089-.62-.71-.266L15.17 25.016l-5.41-1.685c-1.154-.355-1.154-1.242.265-1.774l21.202-8.162c.976-.355 1.863.266 1.508 1.686Z" fill="#6E7191"/>
</g></symbol><symbol id="vk-footer"><g fill="none">
  <path d="M3.093 3.093C0 6.186 0 11.164 0 21.12v1.76c0 9.956 0 14.934 3.093 18.027C6.186 44 11.164 44 21.12 44h1.76c9.956 0 14.934 0 18.027-3.093C44 37.814 44 32.836 44 22.88v-1.76c0-9.956 0-14.934-3.093-18.027C37.814 0 32.836 0 22.88 0h-1.76C11.164 0 6.186 0 3.093 3.093Zm4.332 10.29h5.023c.165 8.397 3.869 11.954 6.802 12.687V13.383h4.73v7.242c2.897-.312 5.94-3.612 6.967-7.242h4.73a13.971 13.971 0 0 1-6.435 9.13 14.471 14.471 0 0 1 7.535 9.185H31.57a9.05 9.05 0 0 0-7.59-6.545v6.545h-.568c-10.029 0-15.749-6.875-15.987-18.315Z" fill="#A0A3BC"/>
</g></symbol><symbol id="vk"><g fill="none">
  <path d="M3.093 3.093C0 6.186 0 11.164 0 21.12v1.76c0 9.956 0 14.934 3.093 18.027C6.186 44 11.164 44 21.12 44h1.76c9.956 0 14.934 0 18.027-3.093C44 37.814 44 32.836 44 22.88v-1.76c0-9.956 0-14.934-3.093-18.027C37.814 0 32.836 0 22.88 0h-1.76C11.164 0 6.186 0 3.093 3.093Zm4.332 10.29h5.023c.165 8.397 3.869 11.954 6.802 12.687V13.383h4.73v7.242c2.897-.312 5.94-3.612 6.967-7.242h4.73a13.971 13.971 0 0 1-6.435 9.13 14.471 14.471 0 0 1 7.535 9.185H31.57a9.05 9.05 0 0 0-7.59-6.545v6.545h-.568c-10.029 0-15.749-6.875-15.987-18.315Z" fill="#6E7191"/>
</g></symbol></svg>